<svg width="120" height="120" xmlns="http://www.w3.org/2000/svg" viewBox="0 0 176 95"><defs><style>.cls-1{fill:#fbb03b;}.cls-1,.cls-2{stroke:#333;stroke-miterlimit:10;stroke-width:10px;}.cls-2,.cls-3{fill:#d8d8d8;}</style></defs><rect class="cls-1" x="77" y="59" width="31" height="31" rx="15.5" ry="15.5"/><rect class="cls-1" x="77" y="5" width="31" height="31" rx="15.5" ry="15.5"/><path class="cls-2" d="M121,87.09,26.2,95.76c-5.5.5-10.19-5-10.19-11.87V45C16,38.06,20.7,32.6,26.2,33.1L121,41.77c5,.45,8.81,5.63,8.81,11.87V75.22C129.78,81.46,125.94,86.64,121,87.09Z" transform="translate(24 -18)"/><path class="cls-2" d="M8.46,41.77,20.07,33.1c.67-.5,1.25,5,1.25,11.87V83.89c0,6.91-.57,12.37-1.25,11.87L8.46,87.09c-.61-.45-1.08-5.63-1.08-11.87V53.64C7.38,47.4,7.85,42.22,8.46,41.77Z" transform="translate(24 -18)"/><rect class="cls-3" x="38.35" y="20.41" width="19.1" height="52.04" rx="8.87" ry="8.87"/><rect class="cls-2" x="148" y="19" width="23" height="54" rx="8" ry="8"/><circle class="cls-2" cx="16.5" cy="46.5" r="11.5"/></svg>