<?xml version="1.0" encoding="utf-8"?>
<svg width="200" height="69" viewBox="0 0 320 110" xmlns="http://www.w3.org/2000/svg">
  <defs>
    <style>.cls-1{fill:#666;}.cls-1,.cls-2{stroke:#333;stroke-miterlimit:10;stroke-width:8px;}.cls-2{fill:#4d4d4d;}.cls-3{fill:#ad0727;}.cls-4{fill:#333;}</style>
  </defs>
  <rect class="cls-1" x="-1.003" y="31.04" width="135.562" height="10.845" rx="4.33" ry="4.33" transform="matrix(0.999885, -0.015184, 0.015184, 0.999885, 105.081546, 21.16083)"/>
  <circle class="cls-2" cx="23.58" cy="47.71" r="18.5" transform="matrix(0.056036, -0.926814, 0.926814, 0.056037, 81.980064, 83.612221)"/>
  <circle class="cls-2" cx="94.52" cy="47.5" r="18.5" transform="matrix(0.056037, -0.926814, 0.926813, 0.056037, 144.06926, 149.183426)"/>
  <path class="cls-3" d="M 267.896 59.917 L 285.407 51.105 L 267.896 45.794 L 267.896 42.08 C 271.61 24.364 289.558 14.958 289.558 14.958 C 251.768 -10.854 216.744 14.958 216.744 14.958 C 236.373 22.387 238.267 42.535 238.406 50.056 L 238.406 67.893 C 234.692 85.609 216.744 95.014 216.744 95.014 C 254.535 120.827 289.558 95.014 289.558 95.014 C 269.976 87.549 268.026 67.438 267.896 59.917 Z"/>
  <path class="cls-4" d="M 269.298 62.322 L 286.809 53.51 C 289.038 52.387 288.314 49.081 286.141 48.422 L 268.629 43.111 L 270.672 45.794 C 270.672 33.807 280.737 22.804 290.951 17.382 C 292.9 16.351 292.603 13.668 290.951 12.572 C 268.666 -2.284 237.561 -3.658 215.324 12.572 C 213.473 13.657 213.492 16.337 215.356 17.397 C 215.556 17.511 215.769 17.599 215.992 17.66 C 232.919 24.448 235.621 41.105 235.621 57.15 C 235.621 60.492 235.974 64.039 235.621 67.363 C 235.147 71.802 232.501 76.333 229.892 79.88 C 226.031 85.14 221.06 89.485 215.333 92.61 C 213.383 93.64 213.68 96.324 215.333 97.419 C 237.617 112.275 268.722 113.649 290.96 97.419 C 292.809 96.335 292.791 93.654 290.927 92.595 C 290.727 92.48 290.513 92.392 290.291 92.331 C 276.837 86.927 270.988 73.687 270.672 59.917 C 270.588 56.333 265.017 56.323 265.101 59.917 C 265.472 76.416 272.928 91.319 288.806 97.698 L 288.137 92.61 C 267.404 107.744 238.926 106.472 218.137 92.61 L 218.137 97.419 C 224.684 93.806 230.34 88.775 234.692 82.693 C 237.775 78.441 240.709 72.962 241.192 67.651 C 241.517 63.937 241.192 60.01 241.192 56.258 C 241.192 49.313 241.09 42.507 239.028 35.785 C 235.902 25.022 227.932 16.334 217.478 12.294 L 218.146 17.345 C 238.88 2.21 267.357 3.482 288.146 17.345 L 288.146 12.563 C 276.187 18.914 265.11 31.829 265.11 45.785 C 265.132 47.029 265.959 48.115 267.153 48.468 L 284.665 53.779 L 283.996 48.691 L 266.484 57.503 C 263.29 59.128 266.104 63.928 269.298 62.322 Z"/>
</svg>