<?xml version="1.0" encoding="utf-8"?>
<svg width="91" height="91" viewBox="0 0 135 135" xmlns="http://www.w3.org/2000/svg">
  <defs>
    <style>.cls-1{fill:#4d4d4d;stroke-width:8px;}.cls-1,.cls-2{stroke:#333;stroke-miterlimit:10;}.cls-2{fill:#ad0727;stroke-width:6px;}</style>
  </defs>
  <circle class="cls-1" cx="58.45" cy="80.45" r="48.29" transform="matrix(0.060352, -0.998177, 0.998177, 0.060352, -17.935143, 120.366776)"/>
  <path class="cls-2" d="M 47.515 86.246 C 19.085 93.126 13.015 107.526 11.905 115.426 C 11.686 116.864 9.992 117.527 8.856 116.618 C 8.675 116.473 8.522 116.296 8.405 116.096 C 2.555 106.356 -5.345 83.316 32.405 62.546 C 34.873 61.2 37.953 61.83 39.695 64.036 L 50.455 77.686 C 52.882 80.759 51.318 85.313 47.515 86.246 Z"/>
  <path class="cls-2" d="M 87.585 86.246 C 116.015 93.126 122.085 107.526 123.195 115.396 C 123.414 116.834 125.108 117.497 126.244 116.588 C 126.425 116.443 126.578 116.266 126.695 116.066 C 132.545 106.326 140.445 83.286 102.695 62.516 C 100.239 61.199 97.192 61.826 95.455 64.006 L 84.635 77.686 C 82.207 80.762 83.778 85.319 87.585 86.246 Z"/>
</svg>