<?xml version="1.0" encoding="utf-8"?>
<svg id="Layer_1" width="121px" height="121px" viewBox="0 0 109 109" xmlns="http://www.w3.org/2000/svg">
  <defs>
    <style>.cls-1{fill:#ba363f;stroke:#333;stroke-miterlimit:10;stroke-width:8px;}.cls-2{opacity:0.04;}.cls-3{opacity:0.1;}.cls-4{fill:#fff;opacity:0.34;}.cls-5{fill:#ccc;opacity:0.18;}</style>
  </defs>
  <title>rubysvg</title>
  <path class="cls-1" d="M 50.781 5.43 L 25.781 14.53 C 23.206 15.466 21.043 17.279 19.671 19.65 L 6.381 42.7 C 5.013 45.073 4.525 47.852 5.001 50.55 L 9.621 76.75 C 10.102 79.449 11.518 81.892 13.621 83.65 L 34.001 100.75 C 36.099 102.512 38.751 103.478 41.491 103.48 L 68.091 103.48 C 70.831 103.478 73.483 102.512 75.581 100.75 L 95.961 83.65 C 98.064 81.892 99.48 79.449 99.961 76.75 L 104.581 50.55 C 105.057 47.852 104.569 45.073 103.201 42.7 L 89.901 19.7 C 88.529 17.329 86.366 15.516 83.791 14.58 L 58.791 5.48 C 56.211 4.518 53.373 4.5 50.781 5.43 Z"/>
  <circle class="cls-2" cx="54.771" cy="55.89" r="27.46"/>
  <g class="cls-3" transform="matrix(1, 0, 0, 1, 0.811379, 0.72954)">
    <path class="cls-4" d="M48.67,36.61,43.9,33.51a5.61,5.61,0,0,1,1.15-10l6.41-2.33a5.61,5.61,0,0,1,7.28,6.9l-1.65,5.44A5.61,5.61,0,0,1,48.67,36.61Z" transform="translate(-10.43 -10.41)"/>
    <path class="cls-4" d="M34.18,53l-5.64.68A5.61,5.61,0,0,1,23,45.27l3.41-5.91a5.61,5.61,0,0,1,10,.6l2.23,5.23A5.61,5.61,0,0,1,34.18,53Z" transform="translate(-10.43 -10.41)"/>
    <path class="cls-4" d="M33.76,75l-3.89,4.15a5.61,5.61,0,0,1-9.62-2.86l-1.19-6.72a5.61,5.61,0,0,1,8.06-6l5.07,2.57A5.61,5.61,0,0,1,33.76,75Z" transform="translate(-10.43 -10.41)"/>
    <path class="cls-4" d="M46.83,91.88l-.31,5.68a5.61,5.61,0,0,1-9.2,4l-5.23-4.39a5.61,5.61,0,0,1,2.33-9.76L40,86.12A5.61,5.61,0,0,1,46.83,91.88Z" transform="translate(-10.43 -10.41)"/>
    <path class="cls-4" d="M88.94,86.37l5.54,1.27a5.61,5.61,0,0,1,2.37,9.75l-5.21,4.41a5.61,5.61,0,0,1-9.22-4l-.33-5.68A5.61,5.61,0,0,1,88.94,86.37Z" transform="translate(-10.43 -10.41)"/>
    <path class="cls-4" d="M68.9,97.2l3.41,4.55a5.61,5.61,0,0,1-4.48,9H61a5.61,5.61,0,0,1-4.48-9l3.41-4.55A5.61,5.61,0,0,1,68.9,97.2Z" transform="translate(-10.43 -10.41)"/>
    <path class="cls-4" d="M96.88,65.42l5.06-2.59A5.61,5.61,0,0,1,110,68.77l-1.16,6.73a5.61,5.61,0,0,1-9.6,2.9l-3.9-4.14A5.61,5.61,0,0,1,96.88,65.42Z" transform="translate(-10.43 -10.41)"/>
    <path class="cls-4" d="M90.26,45.2,92.47,40a5.61,5.61,0,0,1,10-.64l3.44,5.9a5.61,5.61,0,0,1-5.5,8.39L94.78,53A5.61,5.61,0,0,1,90.26,45.2Z" transform="translate(-10.43 -10.41)"/>
    <path class="cls-4" d="M72.16,33.88l-1.67-5.43a5.61,5.61,0,0,1,7.26-6.93l6.42,2.31a5.61,5.61,0,0,1,1.18,10L80.6,36.91A5.61,5.61,0,0,1,72.16,33.88Z" transform="translate(-10.43 -10.41)"/>
  </g>
  <circle class="cls-5" cx="45.881" cy="61.82" r="16.5"/>
</svg>