<?xml version="1.0" encoding="utf-8"?>
<svg width="89" height="72" viewBox="0 0 129.51 103.86" xmlns="http://www.w3.org/2000/svg">
  <defs>
    <style>.cls-1{fill:#8c6239;stroke-width:6px;}.cls-1,.cls-2,.cls-3{stroke:#333;stroke-miterlimit:10;}.cls-2{fill:#c04a4e;}.cls-2,.cls-3{stroke-width:5px;}.cls-3{fill:#666;}</style>
  </defs>
  <path class="cls-1" d="M 105.62 92.387 L 119.45 100.387 C 122.921 102.386 127.256 99.883 127.26 95.877 L 127.26 79.877 C 127.256 75.871 122.921 73.368 119.45 75.367 L 105.62 83.367 C 102.151 85.374 102.151 90.381 105.62 92.387 Z" transform="matrix(-1, 0, 0, -1, 229.411023, 175.754001)"/>
  <path class="cls-1" d="M 105.621 57.387 L 119.451 65.387 C 122.922 67.387 127.257 64.883 127.261 60.877 L 127.261 44.877 C 127.257 40.871 122.922 38.368 119.451 40.367 L 105.621 48.367 C 102.152 50.374 102.152 55.381 105.621 57.387 Z" transform="matrix(-1, 0, 0, -1, 229.412981, 105.755009)"/>
  <path class="cls-1" d="M 105.62 22.387 L 119.45 30.387 C 122.921 32.386 127.256 29.883 127.26 25.877 L 127.26 9.877 C 127.256 5.871 122.921 3.368 119.45 5.367 L 105.62 13.367 C 102.151 15.373 102.151 20.381 105.62 22.387 Z" transform="matrix(-1, 0, 0, -1, 229.411023, 35.754003)"/>
  <path class="cls-1" d="M 92.305 86.484 L 92.305 75.914 C 92.305 74.564 90.715 73.474 88.765 73.474 L 73.655 73.474 C 73.237 73.476 72.82 73.529 72.415 73.635 L 54.705 78.174 C 54.3 78.279 53.883 78.333 53.465 78.334 L 6.855 78.334 C 4.855 78.334 3.315 79.424 3.315 80.774 L 3.315 92.174 C 3.315 93.524 4.905 94.614 6.855 94.614 L 53.465 94.614 C 53.883 94.616 54.3 94.669 54.705 94.774 L 72.405 99.344 C 72.81 99.45 73.226 99.503 73.645 99.504 L 88.755 99.504 C 90.755 99.504 92.295 98.414 92.295 97.064 Z" transform="matrix(-1, 0, 0, -1, 95.620003, 172.978002)"/>
  <path class="cls-1" d="M 92.305 51.484 L 92.305 40.914 C 92.305 39.564 90.715 38.474 88.765 38.474 L 73.655 38.474 C 73.237 38.476 72.82 38.529 72.415 38.635 L 54.705 43.174 C 54.3 43.279 53.883 43.333 53.465 43.334 L 6.855 43.334 C 4.855 43.334 3.315 44.424 3.315 45.774 L 3.315 57.174 C 3.315 58.524 4.905 59.614 6.855 59.614 L 53.465 59.614 C 53.883 59.616 54.3 59.669 54.705 59.774 L 72.405 64.344 C 72.81 64.45 73.226 64.503 73.645 64.504 L 88.755 64.504 C 90.755 64.504 92.295 63.414 92.295 62.064 Z" transform="matrix(-1, 0, 0, -1, 95.620003, 102.977998)"/>
  <path class="cls-1" d="M 92.295 16.484 L 92.295 5.914 C 92.295 4.564 90.705 3.474 88.755 3.474 L 73.645 3.474 C 73.226 3.476 72.81 3.529 72.405 3.634 L 54.705 8.204 C 54.3 8.309 53.883 8.363 53.465 8.364 L 6.855 8.364 C 4.855 8.364 3.315 9.454 3.315 10.804 L 3.315 22.174 C 3.315 23.524 4.905 24.614 6.855 24.614 L 53.465 24.614 C 53.883 24.616 54.3 24.669 54.705 24.774 L 72.405 29.344 C 72.81 29.449 73.226 29.503 73.645 29.504 L 88.755 29.504 C 90.755 29.504 92.295 28.414 92.295 27.064 Z" transform="matrix(-1, 0, 0, -1, 95.609989, 32.977995)"/>
  <rect class="cls-2" x="-82.765" y="-99.804" width="11.73" height="27.36" rx="5" ry="5" transform="matrix(-1, 0, 0, -1, 0, 0)"/>
  <rect class="cls-2" x="-82.765" y="-29.804" width="11.73" height="27.36" rx="5" ry="5" transform="matrix(-1, 0, 0, -1, 0, 0)"/>
  <rect class="cls-2" x="-82.765" y="-64.804" width="11.73" height="27.36" rx="5" ry="5" transform="matrix(-1, 0, 0, -1, 0, 0)"/>
  <rect class="cls-3" x="-102.315" y="-101.304" width="10.5" height="98" rx="3.75" ry="3.75" transform="matrix(-1, 0, 0, -1, 0, 0)"/>
  <rect class="cls-2" x="-62.765" y="-99.804" width="11.73" height="27.36" rx="5" ry="5" transform="matrix(-1, 0, 0, -1, 0, 0)"/>
  <rect class="cls-2" x="-41.565" y="-99.804" width="11.73" height="27.36" rx="5" ry="5" transform="matrix(-1, 0, 0, -1, 0, 0)"/>
  <rect class="cls-2" x="-62.765" y="-29.804" width="11.73" height="27.36" rx="5" ry="5" transform="matrix(-1, 0, 0, -1, 0, 0)"/>
  <rect class="cls-2" x="-41.565" y="-29.804" width="11.73" height="27.36" rx="5" ry="5" transform="matrix(-1, 0, 0, -1, 0, 0)"/>
  <rect class="cls-2" x="-62.765" y="-64.804" width="11.73" height="27.36" rx="5" ry="5" transform="matrix(-1, 0, 0, -1, 0, 0)"/>
  <rect class="cls-2" x="-41.565" y="-64.804" width="11.73" height="27.36" rx="5" ry="5" transform="matrix(-1, 0, 0, -1, 0, 0)"/>
</svg>