<?xml version="1.0" encoding="utf-8"?>
<svg width="65" height="72" viewBox="0 0 99 109" xmlns="http://www.w3.org/2000/svg">
  <defs>
    <style>.cls-1{fill:#fbb03b;stroke-width:10px;}.cls-1,.cls-2{stroke:#333;stroke-miterlimit:10;}.cls-2{fill:#d8d8d8;stroke-width:6px;}</style>
  </defs>
  <path class="cls-1" d="M 15.53 104 L 60.12 104 C 66.49 104 71.65 102.44 71.65 100.52 L 89.75 69.66 C 93.83 62.333 94.084 53.478 90.43 45.93 L 71.66 8.48 C 71.66 6.56 66.5 5 60.13 5 L 15.54 5 C 9.17 5 4.01 6.56 4.01 8.48 L 4.01 100.48 C 4 102.44 9.16 104 15.53 104 Z" transform="matrix(-1, 0, 0, -1, 98.083995, 109.000001)"/>
  <path class="cls-2" d="M 30.476 85.429 L 58.855 85.429 C 62.905 85.429 66.196 84.429 66.196 83.218 L 77.715 63.578 C 80.326 58.901 80.482 53.243 78.135 48.428 L 66.186 24.598 C 66.186 23.378 62.896 22.389 58.846 22.389 L 30.465 22.389 C 26.416 22.389 23.125 23.389 23.125 24.598 L 23.125 83.169 C 23.135 84.429 26.426 85.429 30.476 85.429 Z" transform="matrix(-1, 0, 0, -1, 103.607007, 107.818001)"/>
</svg>