<svg width="50" height="61" xmlns="http://www.w3.org/2000/svg" viewBox="0 0 73.75 94.6"><defs><style>.cls-1,.cls-2{fill:#fff;}.cls-1,.cls-4{stroke:#333;stroke-miterlimit:10;}.cls-1{stroke-width:8px;}.cls-3,.cls-4{fill:#333;}.cls-4{stroke-width:4px;}</style></defs><title>deetghost</title><circle class="cls-1" cx="42.56" cy="25.23" r="7.86" transform="translate(-13.01 52.82) rotate(-86.54)"/><circle class="cls-1" cx="89.7" cy="27.15" r="7.86" transform="translate(29.38 101.67) rotate(-86.54)"/><path class="cls-2" d="M60.19,103.47c-13.11,0-27.88-31.89-27.88-48.88a32.09,32.09,0,0,1,64.19,0c0,17.77-16.14,41.22-33.21,48.24A8,8,0,0,1,60.19,103.47Z" transform="translate(-27.81 -13.37)"/><path class="cls-3" d="M64.41,27A27.63,27.63,0,0,1,92,54.59c0,15.92-15.07,37.76-30.43,44.08a3.59,3.59,0,0,1-1.38.29c-3.12,0-9-4.71-14.62-15-5.15-9.51-8.75-21.58-8.75-29.33A27.63,27.63,0,0,1,64.41,27m0-9A36.59,36.59,0,0,0,27.81,54.59C27.81,73.07,43.26,108,60.19,108A12.54,12.54,0,0,0,65,107c18-7.42,36-32.19,36-52.41A36.59,36.59,0,0,0,64.41,18Z" transform="translate(-27.81 -13.37)"/><rect class="cls-4" x="70.5" y="39.5" width="6" height="5" rx="2.5" ry="2.5" transform="translate(87.69 -44.87) rotate(90)"/><rect class="cls-4" x="51.5" y="39.5" width="6" height="5" rx="2.5" ry="2.5" transform="translate(68.69 -25.87) rotate(90)"/></svg>