<svg width="48" height="48" viewBox="0 0 74 74" xmlns="http://www.w3.org/2000/svg"><defs><style>.cls-1{fill:#845e48;opacity:0.8;}.cls-2{fill:none;stroke:#333;stroke-miterlimit:10;stroke-width:10px;}.cls-3{fill:gray;}.cls-4{fill:#333;}</style></defs><rect class="cls-1" x="32" y="32" width="64" height="64" rx="11.95" ry="11.95" transform="translate(101 -27) rotate(90)"/><rect class="cls-2" x="32" y="32" width="64" height="64" rx="11.95" ry="11.95" transform="translate(101 -27) rotate(90)"/><rect class="cls-3" x="59" y="30" width="5" height="13"/><rect class="cls-3" x="62" y="33" width="5" height="13" transform="translate(-2 77) rotate(-90)"/><rect class="cls-3" x="62" y="82" width="5" height="13" transform="translate(-51 126) rotate(-90)"/><rect class="cls-4" x="9.707" y="19.155" width="7" height="36"/><rect class="cls-4" x="57" y="18" width="7" height="36" transform="matrix(0.999999, 0, 0, 1, 0.388012, 0.929967)"/><rect class="cls-4" x="60.5" y="69.5" width="7" height="36" transform="matrix(0, -1, 1, 0, -50.5, 124.793266)"/><rect class="cls-4" x="63.179" y="22.5" width="7.31" height="36" transform="matrix(0, -1, 1, 0, -3.654995, 79.937278)"/></svg>