<svg width="48" height="48" xmlns="http://www.w3.org/2000/svg" viewBox="0 0 74 74"><defs><style>.cls-1{fill:#875f45;opacity:0.8;}.cls-2{fill:#64b9ed;stroke:#333;stroke-miterlimit:10;stroke-width:10px;}.cls-3{fill:gray;}.cls-4{fill:#333;}</style></defs><rect class="cls-1" x="32" y="32" width="64" height="64" rx="11.95" ry="11.95" transform="translate(101 -27) rotate(90)"/><rect class="cls-2" x="32" y="32" width="64" height="64" rx="11.95" ry="11.95" transform="translate(101 -27) rotate(90)"/><rect class="cls-3" x="59" y="30" width="5" height="13"/><rect class="cls-3" x="62" y="33" width="5" height="13" transform="translate(-2 77) rotate(-90)"/><rect class="cls-3" x="62" y="82" width="5" height="13" transform="translate(-51 126) rotate(-90)"/><rect class="cls-4" x="10" y="19" width="7" height="36"/><rect class="cls-4" x="57" y="18" width="7" height="36"/><rect class="cls-4" x="60.5" y="69.5" width="7" height="36" transform="translate(-50.5 124.5) rotate(-90)"/><rect class="cls-4" x="60.5" y="22.5" width="7" height="36" transform="translate(-3.5 77.5) rotate(-90)"/></svg>