<svg width="96" height="96" xmlns="http://www.w3.org/2000/svg" viewBox="0 0 138 138"><defs><style>.cls-1{fill:#7741aa;}.cls-1,.cls-2,.cls-3{stroke:#333;stroke-miterlimit:10;}.cls-1,.cls-3{stroke-width:10px;}.cls-2{fill:#6d6d6d;stroke-width:8px;}.cls-3{fill:#534741;}</style></defs><rect class="cls-1" x="-4" y="-2" width="128" height="128" rx="12" ry="12" transform="translate(131 9) rotate(90)"/><circle class="cls-2" cx="60.52" cy="62.5" r="53.48" transform="translate(3.48 126.13) rotate(-86.54)"/><path class="cls-1" d="M18.73,68.46V56.34a4.83,4.83,0,0,1,6-4.69l14.88,3.77a4.83,4.83,0,0,1,3.65,4.69v4.58a4.83,4.83,0,0,1-3.65,4.69L24.75,73.14A4.83,4.83,0,0,1,18.73,68.46Z" transform="translate(9 7)"/><path class="cls-1" d="M102.27,57.34V69.46a4.83,4.83,0,0,1-6,4.69L81.37,70.37a4.83,4.83,0,0,1-3.65-4.69V61.11a4.83,4.83,0,0,1,3.65-4.69l14.88-3.77A4.83,4.83,0,0,1,102.27,57.34Z" transform="translate(9 7)"/><path class="cls-3" d="M36.15,93.68,28,85.54a4.59,4.59,0,0,1,.9-7.19l12.53-7.46a4.59,4.59,0,0,1,5.6.7l3.07,3.07a4.59,4.59,0,0,1,.7,5.6L43.34,92.79A4.59,4.59,0,0,1,36.15,93.68Z" transform="translate(9 7)"/><path class="cls-3" d="M84.8,30.1l8.14,8.14a4.59,4.59,0,0,1-.9,7.19L79.51,52.89a4.59,4.59,0,0,1-5.6-.7l-3.07-3.07a4.59,4.59,0,0,1-.7-5.6L77.6,31A4.59,4.59,0,0,1,84.8,30.1Z" transform="translate(9 7)"/><path class="cls-3" d="M28.68,37.56l8.14-8.14a4.59,4.59,0,0,1,7.19.9l7.46,12.53a4.59,4.59,0,0,1-.7,5.6L47.7,51.52a4.59,4.59,0,0,1-5.6.7L29.57,44.76A4.59,4.59,0,0,1,28.68,37.56Z" transform="translate(9 7)"/><path class="cls-3" d="M92.27,86.22l-8.14,8.14a4.59,4.59,0,0,1-7.19-.9L69.47,80.93a4.59,4.59,0,0,1,.7-5.6l3.07-3.07a4.59,4.59,0,0,1,5.6-.7L91.37,79A4.59,4.59,0,0,1,92.27,86.22Z" transform="translate(9 7)"/><path class="cls-1" d="M53.94,21.12H66.06a4.83,4.83,0,0,1,4.69,6L67,42a4.83,4.83,0,0,1-4.69,3.65H57.71A4.83,4.83,0,0,1,53,42L49.25,27.15A4.83,4.83,0,0,1,53.94,21.12Z" transform="translate(9 7)"/><path class="cls-1" d="M65.06,104.67H52.94a4.83,4.83,0,0,1-4.69-6L52,83.77a4.83,4.83,0,0,1,4.69-3.65h4.58A4.83,4.83,0,0,1,66,83.77l3.77,14.88A4.83,4.83,0,0,1,65.06,104.67Z" transform="translate(9 7)"/><circle class="cls-2" cx="69" cy="70" r="20"/></svg>