<svg width="96" height="96" xmlns="http://www.w3.org/2000/svg" viewBox="0 0 138 138"><defs><style>.cls-1{fill:#c69c6d;}.cls-1,.cls-2,.cls-3{stroke:#333;stroke-miterlimit:10;}.cls-1,.cls-3{stroke-width:10px;}.cls-2{fill:#ccc;stroke-width:8px;}.cls-3{fill:#534741;}</style></defs><rect class="cls-1" width="128" height="128" rx="12" ry="12" transform="translate(133 5) rotate(90)"/><circle class="cls-2" cx="64.52" cy="64.5" r="53.48" transform="translate(1.25 130.01) rotate(-86.54)"/><path class="cls-1" d="M22.73,70.46V58.34a4.83,4.83,0,0,1,6-4.69l14.88,3.77a4.83,4.83,0,0,1,3.65,4.69v4.58a4.83,4.83,0,0,1-3.65,4.69L28.75,75.14A4.83,4.83,0,0,1,22.73,70.46Z" transform="translate(5 5)"/><path class="cls-1" d="M106.27,59.34V71.46a4.83,4.83,0,0,1-6,4.69L85.37,72.37a4.83,4.83,0,0,1-3.65-4.69V63.11a4.83,4.83,0,0,1,3.65-4.69l14.88-3.77A4.83,4.83,0,0,1,106.27,59.34Z" transform="translate(5 5)"/><path class="cls-3" d="M40.15,95.68,32,87.54a4.59,4.59,0,0,1,.9-7.19l12.53-7.46a4.59,4.59,0,0,1,5.6.7l3.07,3.07a4.59,4.59,0,0,1,.7,5.6L47.34,94.79A4.59,4.59,0,0,1,40.15,95.68Z" transform="translate(5 5)"/><path class="cls-3" d="M88.8,32.1l8.14,8.14a4.59,4.59,0,0,1-.9,7.19L83.51,54.89a4.59,4.59,0,0,1-5.6-.7l-3.07-3.07a4.59,4.59,0,0,1-.7-5.6L81.6,33A4.59,4.59,0,0,1,88.8,32.1Z" transform="translate(5 5)"/><path class="cls-3" d="M32.68,39.56l8.14-8.14a4.59,4.59,0,0,1,7.19.9l7.46,12.53a4.59,4.59,0,0,1-.7,5.6L51.7,53.52a4.59,4.59,0,0,1-5.6.7L33.57,46.76A4.59,4.59,0,0,1,32.68,39.56Z" transform="translate(5 5)"/><path class="cls-3" d="M96.27,88.22l-8.14,8.14a4.59,4.59,0,0,1-7.19-.9L73.47,82.93a4.59,4.59,0,0,1,.7-5.6l3.07-3.07a4.59,4.59,0,0,1,5.6-.7L95.37,81A4.59,4.59,0,0,1,96.27,88.22Z" transform="translate(5 5)"/><path class="cls-1" d="M57.94,23.12H70.06a4.83,4.83,0,0,1,4.69,6L71,44a4.83,4.83,0,0,1-4.69,3.65H61.71A4.83,4.83,0,0,1,57,44L53.25,29.15A4.83,4.83,0,0,1,57.94,23.12Z" transform="translate(5 5)"/><path class="cls-1" d="M69.06,106.67H56.94a4.83,4.83,0,0,1-4.69-6L56,85.77a4.83,4.83,0,0,1,4.69-3.65h4.58A4.83,4.83,0,0,1,70,85.77l3.77,14.88A4.83,4.83,0,0,1,69.06,106.67Z" transform="translate(5 5)"/></svg>