<?xml version="1.0" encoding="utf-8"?>
<svg width="140" height="38" viewBox="0 0 220 60" xmlns="http://www.w3.org/2000/svg">
  <defs>
    <style>.cls-1{fill:#875f45;}.cls-1,.cls-2,.cls-3{stroke:#333;stroke-miterlimit:10;stroke-width:8px;}.cls-2{fill:#ba363f;}.cls-3{fill:#7741aa;}</style>
  </defs>
  <rect class="cls-1" x="14.83" y="36.36" width="98.13" height="8.67" rx="4.33" ry="4.33" transform="matrix(0.999885, -0.015184, 0.015184, 0.999885, 58.203431, -14.778645)"/>
  <circle class="cls-2" cx="30.27" cy="47.23" r="11.59" transform="matrix(0.060351, -0.998177, 0.998178, 0.060352, 40.113441, 58.84132)"/>
  <circle class="cls-2" cx="74.73" cy="47.1" r="11.59" transform="matrix(0.060352, -0.998178, 0.998177, 0.060352, 82.023438, 103.091377)"/>
  <path class="cls-3" d="M 206.033 20.531 L 194.103 7.621 C 192.797 6.207 190.808 5.643 188.953 6.161 L 168.553 11.871 C 166.315 12.496 164.776 14.548 164.803 16.871 L 165.043 32.241 C 165.08 34.571 166.681 36.583 168.943 37.141 L 189.503 42.241 C 191.37 42.703 193.339 42.082 194.603 40.631 L 206.133 27.361 C 207.841 25.39 207.798 22.452 206.033 20.531 Z"/>
</svg>