<svg width="51" height="51" xmlns="http://www.w3.org/2000/svg" viewBox="0 0 82.97 68.52"><defs><style>.cls-1{fill:#fbb13b;}.cls-1,.cls-2{stroke:#333;stroke-miterlimit:10;stroke-width:8px;}.cls-2{fill:#64b9ed;}</style></defs><circle class="cls-1" cx="50.88" cy="73.39" r="30.26" transform="translate(-34.73 80.62) rotate(-86.54)"/><path class="cls-2" d="M14.77,80.52l7.37-7.66a5.32,5.32,0,0,1,8.95,2.21l3,10.21a5.32,5.32,0,0,1-6.39,6.64L17.33,89.37A5.32,5.32,0,0,1,14.77,80.52Z" transform="translate(-9.28 -39.13)"/><path class="cls-2" d="M55.82,89.89H45.18a5.32,5.32,0,0,1-4.61-8l5.32-9.21a5.32,5.32,0,0,1,9.22,0l5.32,9.21A5.32,5.32,0,0,1,55.82,89.89Z" transform="translate(-9.28 -39.13)"/><path class="cls-2" d="M86.76,79.52l-7.37-7.66a5.32,5.32,0,0,0-8.95,2.21l-3,10.21a5.32,5.32,0,0,0,6.39,6.64L84.2,88.37A5.32,5.32,0,0,0,86.76,79.52Z" transform="translate(-9.28 -39.13)"/></svg>