<svg width="128" height="54" viewBox="-91 48 210 90" preserveAspectRatio="xMaxYMid" xmlns="http://www.w3.org/2000/svg"><defs><style>.cls-1{fill:#a67c52;}.cls-1,.cls-2,.cls-3{stroke:#333;stroke-miterlimit:10;stroke-width:8px;}.cls-2{fill:#ddad68;}.cls-3{fill:#666;}</style></defs><rect class="cls-1" x="-47.66" y="82.412" width="127.08" height="15.72" rx="4.33" ry="4.33"/><circle class="cls-2" cx="2.77" cy="-38.43" r="18.5" transform="matrix(-0.998177, -0.060351, 0.060352, -0.998177, -17.780056, 57.612186)"/><circle class="cls-2" cx="2.98" cy="32.52" r="18.5" transform="matrix(-0.998177, -0.060351, 0.060352, -0.998177, 49.079945, 128.232193)"/><path class="cls-3" d="M 119.109 76.89 L 102.559 61.25 C 101.321 60.08 99.582 59.6 97.919 59.97 L 68.239 66.6 C 65.902 67.128 64.241 69.204 64.239 71.6 L 64.239 89.6 C 64.241 91.997 65.902 94.073 68.239 94.6 L 97.919 101.22 C 99.582 101.591 101.321 101.111 102.559 99.94 L 119.109 84.34 C 121.246 82.317 121.246 78.914 119.109 76.89 Z" transform="matrix(0, -1, 1, 0, 12.146994, 173.33801)" style="fill: #41f384;"/></svg>