<svg width="128" height="67" viewBox="0 0 210 110" xmlns="http://www.w3.org/2000/svg"><defs><style>.cls-1{fill:#fcc875;}.cls-2{fill:#ccc;stroke-width:5px;}.cls-2,.cls-3{stroke:#333;stroke-miterlimit:10;}.cls-3{fill:#ddad68;stroke-width:8px;}</style></defs><g id="weapons" transform="matrix(1, 0, 0, 1, 46.901947, 22.607635)"><path class="cls-1" d="M9.77,67.55l53,20.82c.82.32,1.13,1,.71,1.62h0a2,2,0,0,1-2.25.46l-53-20.82c-.82-.32-1.13-1-.71-1.62h0A2,2,0,0,1,9.77,67.55Z" transform="translate(-5 -45)"/><path class="cls-1" d="M118.57,73.31,61.67,89.81a2.05,2.05,0,0,1-2.23-.6h0c-.36-.58.06-1.26.94-1.52l56.89-16.5a2.05,2.05,0,0,1,2.23.6h0C119.86,72.38,119.44,73.05,118.57,73.31Z" transform="translate(-5 -45)"/><path class="cls-2" d="M120.5,74.4a2.93,2.93,0,0,1-3.28,2.91c-17.68-2.07-35-19.8-52.72-19.8S28.58,75.25,10.78,77.31A2.93,2.93,0,0,1,7.5,74.4V70.28a2.94,2.94,0,0,1,2.7-2.91c18-1.73,36.37-19.87,54.3-19.87s35.41,18.13,53.3,19.87a2.94,2.94,0,0,1,2.7,2.91Z" transform="translate(-5 -45)"/><circle class="cls-3" cx="45.5" cy="78.5" r="18.5" transform="translate(-40.6 74.19) rotate(-86.54)"/></g></svg>