<svg width="192" height="54" viewBox="0 0 320 90" xmlns="http://www.w3.org/2000/svg"><defs><style>.cls-1{fill:#875f45;}.cls-1,.cls-2,.cls-3{stroke:#333;stroke-miterlimit:10;stroke-width:8px;}.cls-2{fill:gray;}.cls-3{fill:#ddad68;}</style></defs><g id="Layer_1" data-name="Layer 1" transform="matrix(1, 0, 0, 1, 97.338509, 0)"><rect class="cls-1" x="4" y="25.93" width="127.08" height="15.72" rx="4.33" ry="4.33"/><rect class="cls-2" x="90.24" y="27.57" width="58.68" height="18.84" rx="4.33" ry="4.33" transform="translate(102.65 152.92) rotate(-90)" style="fill: rgb(100, 185, 237);"/><path class="cls-2" d="M176.45,24.36H133.92a4.26,4.26,0,0,0-2.13.57l-15,8.7a4.26,4.26,0,0,0,0,7.37l15,8.7a4.26,4.26,0,0,0,2.13.57h42.53a4.26,4.26,0,0,0,2.13-.57l15-8.7a4.26,4.26,0,0,0,0-7.37l-15-8.7A4.26,4.26,0,0,0,176.45,24.36Z" transform="translate(20.05 -3.64)" style="fill: rgb(100, 185, 237);"/></g><g id="Layer_2" data-name="Layer 2" transform="matrix(1, 0, 0, 1, 97.338509, 0)"><circle class="cls-3" cx="8.58" cy="45.71" r="18.5" transform="translate(-17.52 47.87) rotate(-86.54)"/><circle class="cls-3" cx="79.52" cy="45.5" r="18.5" transform="translate(49.35 118.49) rotate(-86.54)"/></g></svg>