<!DOCTYPE svg PUBLIC "-//W3C//DTD SVG 20010904//EN" "http://www.w3.org/TR/2001/REC-SVG-20010904/DTD/svg10.dtd">
<svg version="1.0" xmlns="http://www.w3.org/2000/svg" width="128" height="67" viewBox="0 0 12000 8950" preserveAspectRatio="xMidYMid meet">
  <g id="layer101" fill="#323131" stroke="none">
    <path d="M4995 8940 c3 -5 -1 -10 -9 -10 -9 0 -16 -4 -16 -9 0 -5 -17 -20 -37 -32 -21 -13 -42 -27 -48 -31 -5 -5 -31 -22 -56 -38 -59 -38 -115 -102 -188 -212 -58 -89 -66 -112 -102 -293 -7 -33 -17 -80 -24 -105 -28 -100 -35 -154 -45 -359 -9 -157 -9 -241 0 -315 6 -56 17 -216 25 -356 8 -140 19 -277 24 -305 6 -27 15 -95 20 -150 6 -55 18 -164 27 -243 17 -138 17 -146 -1 -200 -21 -67 -92 -142 -133 -142 -29 0 -112 -50 -112 -67 0 -17 -52 -55 -135 -98 -38 -20 -83 -49 -100 -65 -16 -15 -46 -36 -65 -46 -19 -10 -41 -25 -48 -32 -8 -7 -27 -19 -43 -27 -16 -9 -29 -19 -29 -23 0 -4 -22 -21 -50 -37 -27 -16 -50 -32 -50 -35 0 -3 -37 -25 -83 -48 -46 -24 -94 -53 -108 -65 -13 -13 -55 -42 -94 -66 -38 -24 -92 -64 -118 -88 -30 -28 -54 -43 -63 -39 -9 3 -37 6 -63 6 l-48 0 11 42 c9 34 34 66 125 158 62 63 122 126 133 140 11 14 29 27 41 30 29 8 50 72 42 125 -3 22 -26 83 -52 134 -25 52 -52 122 -59 155 -20 90 -45 177 -60 213 -8 17 -14 37 -14 45 0 8 -4 18 -8 24 -15 17 -41 128 -48 204 -20 234 -17 224 -72 312 -36 60 -54 103 -65 155 -16 75 -43 122 -116 203 -23 24 -41 48 -41 52 0 25 -129 118 -165 118 -9 0 -28 9 -42 20 -55 43 -129 37 -343 -31 -69 -22 -148 -51 -175 -64 -45 -22 -63 -25 -170 -25 -110 0 -128 -3 -218 -34 -54 -19 -101 -37 -104 -40 -4 -3 -14 -6 -23 -6 -10 0 -35 -19 -56 -42 -22 -23 -58 -61 -82 -84 -59 -58 -82 -133 -82 -272 0 -111 13 -172 57 -272 14 -30 31 -62 38 -70 7 -8 25 -44 40 -80 15 -36 34 -80 43 -98 24 -51 20 -120 -10 -167 -44 -70 -35 -68 -270 -62 -220 5 -283 15 -351 54 -17 10 -52 25 -77 32 -25 7 -65 19 -90 27 -25 7 -81 16 -125 20 -83 6 -155 35 -155 61 0 7 -4 13 -9 13 -5 0 -12 11 -15 24 -8 31 -19 32 -218 28 l-167 -4 -23 -47 c-28 -58 -45 -72 -85 -68 -17 1 -30 0 -27 -4 2 -4 -4 -9 -14 -11 -29 -8 -52 -69 -52 -137 0 -37 -5 -63 -12 -68 -7 -4 -14 -26 -14 -48 -1 -22 -5 -53 -9 -69 -5 -18 -4 -31 4 -35 6 -4 16 -36 22 -72 6 -35 17 -74 25 -86 8 -12 14 -34 14 -48 0 -22 4 -25 35 -25 45 0 98 -26 91 -45 -3 -9 0 -12 9 -9 8 4 18 -7 26 -30 7 -19 17 -32 22 -29 5 3 19 1 30 -5 51 -23 79 -32 101 -32 35 0 128 -50 122 -66 -4 -9 2 -14 15 -14 15 0 19 -5 15 -16 -3 -8 -2 -12 3 -9 10 6 110 -44 131 -65 3 -3 14 -10 25 -17 11 -6 19 -16 17 -23 -1 -6 2 -9 7 -6 11 7 120 -76 185 -140 47 -46 79 -101 69 -116 -3 -6 -1 -8 5 -5 5 4 22 -8 36 -25 38 -47 39 -50 56 -83 8 -16 32 -59 53 -94 22 -36 43 -74 47 -85 5 -12 9 -15 9 -7 2 27 52 -43 88 -121 20 -43 39 -78 43 -78 4 0 15 -18 25 -40 10 -22 21 -40 24 -40 4 0 15 -16 25 -35 11 -19 23 -35 28 -35 4 0 8 -6 8 -14 0 -8 3 -16 8 -18 14 -6 98 -114 111 -143 13 -31 132 -192 172 -235 80 -85 84 -91 69 -101 -13 -9 -12 -10 2 -6 17 6 45 -18 31 -25 -4 -3 -3 -4 3 -2 5 1 53 -43 105 -98 52 -55 110 -117 130 -137 19 -20 71 -76 115 -126 104 -118 557 -570 614 -615 82 -63 130 -125 130 -166 0 -15 -52 -70 -100 -105 -34 -25 -145 -70 -203 -83 -48 -11 -119 -49 -202 -108 -82 -58 -109 -87 -137 -148 -9 -19 -31 -48 -48 -65 -53 -50 -60 -97 -71 -445 -17 -502 -20 -1130 -7 -1165 19 -48 68 -105 105 -120 20 -8 59 -15 88 -15 35 0 57 -5 65 -15 17 -20 96 -20 156 1 32 11 61 14 92 9 43 -6 46 -5 83 35 22 23 39 49 39 59 0 27 21 41 61 41 47 0 64 22 68 88 1 6 8 12 17 12 9 0 25 11 36 25 13 16 29 25 48 25 16 0 32 5 35 10 3 6 15 10 25 10 10 0 23 6 27 13 4 7 22 17 38 23 24 8 30 15 28 36 -1 20 9 36 38 62 21 20 46 36 54 36 8 0 15 8 15 18 0 11 9 27 20 37 11 10 20 23 20 30 0 7 9 20 20 30 11 10 20 26 20 35 0 10 35 51 78 91 61 59 90 79 142 98 36 13 79 34 95 45 17 12 46 27 65 34 46 17 177 42 216 42 37 0 113 25 209 70 90 41 158 59 270 71 260 26 258 26 364 74 142 63 211 78 346 73 120 -4 156 -16 257 -85 28 -18 62 -36 77 -40 38 -9 113 -52 134 -75 15 -18 17 -45 17 -252 -1 -306 -17 -754 -30 -828 -9 -49 -9 -63 3 -77 23 -26 27 -48 15 -79 -10 -27 -9 -33 15 -62 15 -17 27 -38 27 -46 0 -8 5 -14 11 -14 17 0 38 -32 39 -57 0 -12 4 -24 9 -27 4 -3 6 -17 4 -30 -4 -21 -2 -24 16 -19 17 4 21 1 21 -21 l0 -26 294 0 293 0 61 56 c47 42 63 65 68 92 4 21 19 49 35 65 32 31 34 39 17 68 -11 17 -10 22 2 29 38 24 39 25 31 62 -6 24 -5 38 2 41 7 2 6 31 -3 87 -9 61 -12 215 -11 549 1 426 3 466 19 484 25 28 98 77 115 77 18 0 85 38 131 74 45 36 132 55 248 56 113 0 223 -27 323 -81 55 -29 260 -69 354 -69 63 0 278 -62 315 -91 28 -22 110 -43 226 -59 105 -15 230 -55 245 -80 3 -5 25 -14 48 -20 52 -14 104 -48 160 -103 46 -45 107 -129 107 -146 0 -6 29 -41 65 -76 36 -36 65 -69 65 -74 0 -5 7 -11 15 -15 8 -3 15 -12 15 -21 0 -8 4 -15 9 -15 5 0 11 -8 14 -19 3 -12 17 -21 40 -25 20 -4 37 -10 39 -14 2 -4 28 -19 58 -34 57 -28 100 -78 100 -115 0 -24 18 -33 66 -33 28 0 39 -7 63 -40 17 -24 27 -48 24 -59 -4 -16 -1 -19 17 -14 20 5 21 3 15 -18 -3 -13 -3 -19 2 -13 4 6 25 14 45 18 31 6 39 3 50 -14 15 -23 53 -27 62 -5 7 20 79 20 96 0 14 -17 50 -20 50 -5 0 20 29 22 65 4 34 -16 39 -16 98 2 94 27 103 36 116 107 20 119 24 169 12 176 -11 7 -25 115 -38 294 -4 61 -2 95 6 111 8 15 11 51 8 107 -2 46 -10 248 -16 449 -12 347 -20 436 -45 464 -17 18 -36 49 -42 69 -4 9 -10 17 -15 17 -5 0 -9 6 -9 14 0 7 -7 19 -15 26 -8 7 -15 21 -15 31 0 19 -85 93 -130 113 -14 6 -31 16 -38 23 -23 22 -152 83 -176 83 -27 0 -142 46 -167 67 -8 7 -19 13 -23 13 -4 0 -27 19 -52 42 -61 57 -60 83 9 151 62 61 218 207 222 207 2 0 93 90 202 201 109 110 232 235 274 277 42 42 93 97 113 122 70 85 121 142 176 199 31 31 87 92 125 136 39 44 73 82 78 83 4 2 7 10 7 18 0 8 4 14 8 14 5 0 24 21 42 48 19 26 37 49 40 52 3 3 23 32 43 66 20 33 50 74 67 92 30 32 90 122 130 195 11 20 25 37 30 37 6 0 10 5 10 10 0 6 11 28 25 50 14 23 28 54 32 70 3 17 9 30 14 30 5 0 9 5 9 11 0 6 23 36 50 66 28 30 50 59 50 64 0 8 72 114 99 146 6 6 24 33 41 60 26 41 175 203 187 203 3 0 18 14 35 30 17 17 47 43 67 58 20 15 38 29 41 32 3 4 23 14 44 24 22 10 68 38 102 61 35 24 80 46 103 50 47 8 102 33 150 69 19 14 41 26 49 26 7 0 10 4 7 10 -3 5 3 15 15 22 19 12 20 22 20 325 l0 312 -30 21 c-16 12 -33 32 -36 46 -4 15 -13 24 -25 24 -10 0 -19 4 -19 9 0 5 -61 9 -135 10 -150 2 -172 -4 -235 -65 -36 -34 -127 -64 -199 -64 -56 0 -221 -52 -253 -79 -31 -27 -142 -41 -357 -48 l-203 -6 -28 33 c-16 19 -36 53 -46 78 -18 49 -13 78 32 179 13 28 24 56 24 62 0 5 6 16 13 23 6 8 20 29 31 48 10 19 26 49 35 65 10 17 28 61 40 99 20 61 23 83 18 170 -5 103 -13 135 -53 219 -29 60 -111 167 -133 174 -9 2 -32 13 -52 24 -20 10 -51 19 -68 19 -21 0 -31 5 -31 15 0 18 -37 20 -42 3 -3 -9 -11 -8 -31 4 -19 13 -45 17 -109 16 -82 -2 -188 16 -188 32 0 9 -101 40 -195 61 -33 7 -70 19 -82 26 -12 8 -64 16 -126 20 l-106 6 -104 -51 c-109 -53 -119 -61 -192 -157 -68 -90 -91 -126 -105 -170 -29 -93 -65 -183 -88 -223 -31 -54 -40 -90 -57 -232 -12 -106 -22 -146 -77 -315 -24 -71 -36 -121 -48 -192 -4 -28 -24 -79 -45 -114 -20 -34 -39 -74 -42 -89 -3 -15 -18 -37 -34 -49 -20 -15 -29 -30 -29 -49 0 -45 19 -100 45 -131 14 -16 25 -34 25 -40 0 -6 4 -11 9 -11 14 0 90 -80 134 -140 41 -57 84 -100 98 -100 20 0 49 -36 49 -61 0 -28 -27 -59 -51 -59 -17 0 -78 40 -118 78 -16 15 -67 51 -113 80 -47 30 -96 63 -109 75 -13 12 -51 35 -84 52 -33 16 -100 59 -150 96 -49 36 -112 78 -140 94 -27 15 -75 46 -105 67 -30 22 -100 68 -155 103 -55 35 -105 67 -111 72 -19 15 -49 33 -69 42 -24 11 -88 78 -104 108 -22 44 -10 309 24 528 43 278 58 534 59 1000 1 311 -14 456 -59 560 -7 17 -18 55 -25 85 -14 65 -48 134 -104 210 -78 106 -128 160 -184 197 -58 38 -70 47 -124 96 l-32 27 -1103 0 c-734 0 -1102 -3 -1098 -10z m2415 -4100 c0 -5 17 -12 38 -16 28 -5 56 -24 117 -83 44 -43 94 -84 110 -92 17 -7 60 -31 97 -51 37 -21 77 -38 88 -38 24 0 123 -54 114 -62 -3 -4 8 -9 25 -13 17 -4 31 -10 31 -15 0 -4 9 -10 21 -13 12 -3 18 -10 14 -16 -3 -6 0 -9 8 -5 17 6 107 -72 107 -93 0 -7 -24 -39 -54 -70 -30 -30 -57 -62 -60 -69 -3 -8 -16 -19 -28 -24 -13 -5 -45 -23 -73 -40 -61 -36 -201 -105 -235 -115 -14 -4 -56 -22 -95 -40 -83 -38 -130 -56 -207 -81 -51 -16 -60 -16 -84 -3 -15 8 -36 28 -46 44 -17 27 -18 45 -13 190 7 196 32 551 45 624 5 30 17 62 26 72 18 20 54 26 54 9z m-2597 -29 c10 -7 17 -19 17 -26 0 -6 8 -20 19 -29 20 -19 24 -45 40 -286 6 -80 15 -197 20 -260 19 -202 19 -200 -40 -248 -49 -40 -55 -42 -118 -42 -57 0 -76 5 -143 40 -42 21 -99 47 -127 56 -39 12 -53 22 -57 40 -4 14 -14 24 -24 24 -11 0 -22 5 -25 10 -3 6 -20 10 -37 10 -36 0 -188 77 -188 95 0 7 -17 25 -37 41 -50 36 -90 81 -96 105 -3 13 3 29 19 44 13 13 24 31 24 40 0 9 14 24 31 33 17 9 58 37 92 62 34 24 130 86 214 136 84 51 176 110 206 131 52 37 59 39 124 39 44 -1 76 -6 86 -15z" />
  </g>
  <g id="layer102" fill="#482724" stroke="none">
    <path d="M4995 8940 c3 -5 -1 -10 -9 -10 -9 0 -16 -4 -16 -9 0 -5 -17 -20 -37 -32 -21 -13 -42 -27 -48 -31 -5 -5 -31 -22 -56 -38 -59 -38 -115 -102 -188 -212 -58 -89 -66 -112 -102 -293 -7 -33 -17 -80 -24 -105 -28 -100 -35 -154 -45 -359 -9 -157 -9 -241 0 -315 6 -56 17 -216 25 -356 8 -140 19 -277 24 -305 6 -27 15 -95 20 -150 6 -55 18 -164 27 -243 17 -138 17 -146 -1 -200 -21 -67 -92 -142 -133 -142 -29 0 -112 -50 -112 -67 0 -17 -52 -55 -135 -98 -38 -20 -83 -49 -100 -65 -16 -15 -46 -36 -65 -46 -19 -10 -41 -25 -48 -32 -8 -7 -27 -19 -43 -27 -16 -9 -29 -19 -29 -23 0 -4 -22 -21 -50 -37 -27 -16 -50 -32 -50 -35 0 -3 -37 -25 -83 -48 -46 -24 -94 -53 -108 -65 -13 -13 -55 -42 -94 -66 -38 -24 -92 -64 -118 -88 -30 -28 -54 -43 -63 -39 -9 3 -37 6 -63 6 l-48 0 11 42 c9 34 34 66 125 158 62 63 122 126 133 140 11 14 29 27 41 30 29 8 50 72 42 125 -3 22 -26 83 -52 134 -25 52 -52 122 -59 155 -20 90 -45 177 -60 213 -8 17 -14 37 -14 45 0 8 -4 18 -8 24 -15 17 -41 128 -48 204 -20 234 -17 224 -72 312 -36 60 -54 103 -65 155 -16 75 -43 122 -116 203 -23 24 -41 48 -41 52 0 25 -129 118 -165 118 -9 0 -28 9 -42 20 -55 43 -129 37 -343 -31 -69 -22 -148 -51 -175 -64 -45 -22 -63 -25 -170 -25 -110 0 -128 -3 -218 -34 -54 -19 -101 -37 -104 -40 -4 -3 -14 -6 -23 -6 -10 0 -35 -19 -56 -42 -22 -23 -58 -61 -82 -84 -59 -58 -82 -133 -82 -272 0 -111 13 -172 57 -272 14 -30 31 -62 38 -70 7 -8 25 -44 40 -80 15 -36 34 -80 43 -98 24 -51 20 -120 -10 -167 -44 -70 -35 -68 -270 -62 -220 5 -283 15 -351 54 -17 10 -52 25 -77 32 -25 7 -65 19 -90 27 -25 7 -81 16 -125 20 -83 6 -155 35 -155 61 0 7 -4 13 -9 13 -5 0 -12 11 -15 24 -8 31 -19 32 -218 28 l-167 -4 -23 -47 c-28 -58 -45 -72 -85 -68 -17 1 -30 0 -27 -4 2 -4 -4 -9 -14 -11 -29 -8 -52 -69 -52 -137 0 -37 -5 -63 -12 -68 -7 -4 -14 -26 -14 -48 -1 -22 -5 -53 -9 -69 -5 -18 -4 -31 4 -35 6 -4 16 -36 22 -72 6 -35 17 -74 25 -86 8 -12 14 -34 14 -48 0 -22 4 -25 35 -25 45 0 98 -26 91 -45 -3 -9 0 -12 9 -9 8 4 18 -7 26 -30 7 -19 17 -32 22 -29 5 3 19 1 30 -5 51 -23 79 -32 101 -32 35 0 128 -50 122 -66 -4 -9 2 -14 15 -14 15 0 19 -5 15 -16 -3 -8 -2 -12 3 -9 10 6 110 -44 131 -65 3 -3 14 -10 25 -17 11 -6 19 -16 17 -23 -1 -6 2 -9 7 -6 11 7 120 -76 185 -140 47 -46 79 -101 69 -116 -3 -6 -1 -8 5 -5 5 4 22 -8 36 -25 38 -47 39 -50 56 -83 8 -16 32 -59 53 -94 22 -36 43 -74 47 -85 5 -12 9 -15 9 -7 2 27 52 -43 88 -121 20 -43 39 -78 43 -78 4 0 15 -18 25 -40 10 -22 21 -40 24 -40 4 0 15 -16 25 -35 11 -19 23 -35 28 -35 4 0 8 -6 8 -14 0 -8 3 -16 8 -18 14 -6 98 -114 111 -143 13 -31 132 -192 172 -235 80 -85 84 -91 69 -101 -13 -9 -12 -10 2 -6 17 6 45 -18 31 -25 -4 -3 -3 -4 3 -2 5 1 53 -43 105 -98 52 -55 110 -117 130 -137 19 -20 71 -76 115 -126 104 -118 557 -570 614 -615 82 -63 130 -125 130 -166 0 -15 -52 -70 -100 -105 -34 -25 -145 -70 -203 -83 -48 -11 -119 -49 -202 -108 -82 -58 -109 -87 -137 -148 -9 -19 -31 -48 -48 -65 -53 -50 -60 -97 -71 -445 -17 -502 -20 -1130 -7 -1165 19 -48 68 -105 105 -120 20 -8 59 -15 88 -15 35 0 57 -5 65 -15 17 -20 96 -20 156 1 32 11 61 14 92 9 43 -6 46 -5 83 35 22 23 39 49 39 59 0 27 21 41 61 41 47 0 64 22 68 88 1 6 8 12 17 12 9 0 25 11 36 25 13 16 29 25 48 25 16 0 32 5 35 10 3 6 15 10 25 10 10 0 23 6 27 13 4 7 22 17 38 23 24 8 30 15 28 36 -1 20 9 36 38 62 21 20 46 36 54 36 8 0 15 8 15 18 0 11 9 27 20 37 11 10 20 23 20 30 0 7 9 20 20 30 11 10 20 26 20 35 0 10 35 51 78 91 61 59 90 79 142 98 36 13 79 34 95 45 17 12 46 27 65 34 46 17 177 42 216 42 37 0 113 25 209 70 90 41 158 59 270 71 260 26 258 26 364 74 142 63 211 78 346 73 120 -4 156 -16 257 -85 28 -18 62 -36 77 -40 38 -9 113 -52 134 -75 15 -18 17 -45 17 -252 -1 -306 -17 -754 -30 -828 -9 -49 -9 -63 3 -77 23 -26 27 -48 15 -79 -10 -27 -9 -33 15 -62 15 -17 27 -38 27 -46 0 -8 5 -14 11 -14 17 0 38 -32 39 -57 0 -12 4 -24 9 -27 4 -3 6 -17 4 -30 -4 -21 -2 -24 16 -19 17 4 21 1 21 -21 l0 -26 294 0 293 0 61 56 c47 42 63 65 68 92 4 21 19 49 35 65 32 31 34 39 17 68 -11 17 -10 22 2 29 38 24 39 25 31 62 -6 24 -5 38 2 41 7 2 6 31 -3 87 -9 61 -12 215 -11 549 1 426 3 466 19 484 25 28 98 77 115 77 18 0 85 38 131 74 45 36 132 55 248 56 113 0 223 -27 323 -81 55 -29 260 -69 354 -69 63 0 278 -62 315 -91 28 -22 110 -43 226 -59 105 -15 230 -55 245 -80 3 -5 25 -14 48 -20 52 -14 104 -48 160 -103 46 -45 107 -129 107 -146 0 -6 29 -41 65 -76 36 -36 65 -69 65 -74 0 -5 7 -11 15 -15 8 -3 15 -12 15 -21 0 -8 4 -15 9 -15 5 0 11 -8 14 -19 3 -12 17 -21 40 -25 20 -4 37 -10 39 -14 2 -4 28 -19 58 -34 57 -28 100 -78 100 -115 0 -24 18 -33 66 -33 28 0 39 -7 63 -40 17 -24 27 -48 24 -59 -4 -16 -1 -19 17 -14 20 5 21 3 15 -18 -3 -13 -3 -19 2 -13 4 6 25 14 45 18 31 6 39 3 50 -14 15 -23 53 -27 62 -5 7 20 79 20 96 0 14 -17 50 -20 50 -5 0 20 29 22 65 4 34 -16 39 -16 98 2 94 27 103 36 116 107 20 119 24 169 12 176 -11 7 -25 115 -38 294 -4 61 -2 95 6 111 8 15 11 51 8 107 -2 46 -10 248 -16 449 -12 347 -20 436 -45 464 -17 18 -36 49 -42 69 -4 9 -10 17 -15 17 -5 0 -9 6 -9 14 0 7 -7 19 -15 26 -8 7 -15 21 -15 31 0 19 -85 93 -130 113 -14 6 -31 16 -38 23 -23 22 -152 83 -176 83 -27 0 -142 46 -167 67 -8 7 -19 13 -23 13 -4 0 -27 19 -52 42 -61 57 -60 83 9 151 62 61 218 207 222 207 2 0 93 90 202 201 109 110 232 235 274 277 42 42 93 97 113 122 70 85 121 142 176 199 31 31 87 92 125 136 39 44 73 82 78 83 4 2 7 10 7 18 0 8 4 14 8 14 5 0 24 21 42 48 19 26 37 49 40 52 3 3 23 32 43 66 20 33 50 74 67 92 30 32 90 122 130 195 11 20 25 37 30 37 6 0 10 5 10 10 0 6 11 28 25 50 14 23 28 54 32 70 3 17 9 30 14 30 5 0 9 5 9 11 0 6 23 36 50 66 28 30 50 59 50 64 0 8 72 114 99 146 6 6 24 33 41 60 26 41 175 203 187 203 3 0 18 14 35 30 17 17 47 43 67 58 20 15 38 29 41 32 3 4 23 14 44 24 22 10 68 38 102 61 35 24 80 46 103 50 47 8 102 33 150 69 19 14 41 26 49 26 7 0 10 4 7 10 -3 5 3 15 15 22 19 12 20 22 20 325 l0 312 -30 21 c-16 12 -33 32 -36 46 -4 15 -13 24 -25 24 -10 0 -19 4 -19 9 0 5 -61 9 -135 10 -150 2 -172 -4 -235 -65 -36 -34 -127 -64 -199 -64 -56 0 -221 -52 -253 -79 -31 -27 -142 -41 -357 -48 l-203 -6 -28 33 c-16 19 -36 53 -46 78 -18 49 -13 78 32 179 13 28 24 56 24 62 0 5 6 16 13 23 6 8 20 29 31 48 10 19 26 49 35 65 10 17 28 61 40 99 20 61 23 83 18 170 -5 103 -13 135 -53 219 -29 60 -111 167 -133 174 -9 2 -32 13 -52 24 -20 10 -51 19 -68 19 -21 0 -31 5 -31 15 0 18 -37 20 -42 3 -3 -9 -11 -8 -31 4 -19 13 -45 17 -109 16 -82 -2 -188 16 -188 32 0 9 -101 40 -195 61 -33 7 -70 19 -82 26 -12 8 -64 16 -126 20 l-106 6 -104 -51 c-109 -53 -119 -61 -192 -157 -68 -90 -91 -126 -105 -170 -29 -93 -65 -183 -88 -223 -31 -54 -40 -90 -57 -232 -12 -106 -22 -146 -77 -315 -24 -71 -36 -121 -48 -192 -4 -28 -24 -79 -45 -114 -20 -34 -39 -74 -42 -89 -3 -15 -18 -37 -34 -49 -20 -15 -29 -30 -29 -49 0 -45 19 -100 45 -131 14 -16 25 -34 25 -40 0 -6 4 -11 9 -11 14 0 90 -80 134 -140 41 -57 84 -100 98 -100 20 0 49 -36 49 -61 0 -28 -27 -59 -51 -59 -17 0 -78 40 -118 78 -16 15 -67 51 -113 80 -47 30 -96 63 -109 75 -13 12 -51 35 -84 52 -33 16 -100 59 -150 96 -49 36 -112 78 -140 94 -27 15 -75 46 -105 67 -30 22 -100 68 -155 103 -55 35 -105 67 -111 72 -19 15 -49 33 -69 42 -24 11 -88 78 -104 108 -22 44 -10 309 24 528 43 278 58 534 59 1000 1 311 -14 456 -59 560 -7 17 -18 55 -25 85 -14 65 -48 134 -104 210 -78 106 -128 160 -184 197 -58 38 -70 47 -124 96 l-32 27 -1103 0 c-734 0 -1102 -3 -1098 -10z m730 -173 c44 -13 121 -30 170 -37 124 -16 394 -14 550 4 190 22 480 39 554 31 120 -13 271 -74 330 -135 20 -20 71 -95 113 -166 l77 -129 12 -337 c10 -268 10 -458 1 -935 -15 -736 -15 -855 0 -905 14 -47 85 -113 162 -151 28 -14 77 -48 109 -75 31 -27 72 -53 90 -59 19 -6 66 -31 105 -57 39 -25 111 -68 161 -95 50 -27 98 -56 106 -65 9 -9 55 -36 103 -61 48 -24 109 -63 137 -86 57 -47 87 -64 132 -74 23 -4 48 -24 80 -62 29 -34 68 -65 102 -83 31 -15 74 -42 96 -60 112 -90 229 -103 285 -33 34 43 26 85 -30 165 -27 39 -50 77 -50 83 0 22 -177 181 -253 228 -62 38 -91 99 -91 187 0 80 74 322 121 396 40 62 47 93 72 289 20 155 22 163 70 256 28 53 59 133 70 177 26 103 52 155 110 213 25 26 62 65 81 88 44 53 92 70 196 71 98 0 163 -18 229 -65 79 -57 155 -75 355 -85 96 -5 188 -13 204 -17 21 -7 42 -30 80 -88 51 -79 51 -80 51 -160 0 -73 -6 -97 -74 -290 -40 -115 -83 -228 -94 -250 -28 -55 -26 -120 7 -184 78 -155 164 -197 426 -208 240 -9 462 30 691 120 133 53 245 84 334 93 51 5 70 3 111 -15 118 -53 148 -91 148 -195 -1 -77 -20 -116 -82 -157 -26 -18 -63 -47 -82 -65 -43 -40 -159 -99 -220 -113 -27 -6 -51 -19 -60 -32 -8 -12 -46 -42 -85 -67 -143 -91 -249 -189 -378 -347 -53 -66 -107 -140 -119 -165 -12 -25 -41 -71 -65 -104 -24 -32 -61 -92 -83 -135 -22 -42 -54 -92 -71 -111 -16 -19 -48 -69 -69 -111 -21 -41 -55 -98 -76 -125 -21 -27 -61 -85 -90 -129 -28 -44 -64 -91 -79 -105 -15 -14 -42 -49 -61 -77 -18 -29 -80 -103 -137 -165 -57 -62 -123 -140 -147 -173 -55 -75 -768 -790 -833 -836 -27 -19 -72 -63 -100 -98 -115 -142 -113 -135 -47 -205 29 -30 82 -73 118 -94 37 -22 78 -52 91 -66 14 -14 32 -26 40 -26 27 0 162 -64 230 -108 36 -23 82 -47 103 -54 49 -15 82 -47 96 -96 19 -63 31 -269 42 -712 8 -348 13 -430 30 -508 34 -159 31 -174 -41 -235 -78 -67 -144 -84 -190 -48 -13 10 -52 30 -86 45 -33 16 -74 41 -90 58 -15 17 -71 61 -124 99 -70 49 -150 124 -290 270 -107 110 -223 225 -258 255 -57 47 -74 55 -140 69 -170 36 -220 49 -298 80 -103 41 -146 51 -303 65 -198 18 -294 38 -398 81 -53 22 -132 46 -177 54 -118 20 -416 38 -518 31 -101 -7 -145 -22 -198 -71 -44 -39 -91 -65 -167 -90 -69 -22 -105 -54 -138 -120 -39 -81 -52 -194 -64 -565 -6 -184 -15 -418 -20 -518 -12 -245 -12 -245 -158 -307 -71 -30 -98 -29 -180 6 -79 34 -109 63 -116 111 -3 24 -13 264 -21 533 -8 270 -20 528 -26 575 -19 160 -81 251 -197 290 -65 21 -105 45 -179 104 -69 55 -176 66 -458 46 -210 -15 -280 -28 -389 -72 -132 -52 -190 -64 -396 -84 -98 -9 -199 -24 -230 -34 -30 -10 -93 -32 -140 -48 -47 -17 -132 -40 -190 -52 -58 -12 -125 -32 -150 -45 -70 -36 -189 -143 -267 -241 -88 -111 -236 -254 -328 -318 -38 -27 -92 -69 -120 -93 -30 -26 -94 -65 -158 -95 -127 -60 -122 -61 -228 42 l-68 65 25 110 c27 120 37 285 52 895 8 301 9 318 33 375 19 48 32 64 64 82 22 12 48 23 59 23 10 0 39 15 65 34 52 38 128 77 184 96 45 14 229 133 287 186 23 21 46 49 51 62 12 32 -16 92 -75 160 -25 30 -46 57 -46 62 0 4 -25 22 -56 39 -30 18 -109 85 -176 149 -136 132 -570 586 -674 706 -38 43 -105 119 -149 168 -44 49 -98 116 -120 148 -22 31 -54 70 -71 86 -17 16 -47 57 -66 91 -20 34 -62 94 -93 135 -30 40 -69 102 -86 138 -17 36 -42 77 -54 92 -13 15 -47 67 -76 115 -29 49 -72 114 -96 147 -24 32 -46 70 -50 85 -11 46 -40 95 -82 136 -23 21 -41 43 -41 48 0 39 -279 290 -381 342 -19 10 -47 29 -63 42 -17 14 -80 49 -140 78 -70 33 -133 72 -171 105 -33 28 -72 57 -88 62 -37 14 -48 37 -54 122 -5 59 -2 81 15 118 18 40 28 50 86 78 37 17 82 34 100 37 53 8 183 -23 404 -98 316 -106 510 -135 740 -110 188 21 252 47 315 126 77 96 85 180 33 307 -19 46 -62 164 -95 263 -82 242 -82 264 -3 385 31 49 63 92 70 94 7 3 106 10 220 16 l207 11 127 60 c143 68 212 83 318 70 84 -11 104 -22 136 -74 15 -23 46 -59 71 -81 50 -44 85 -106 108 -195 9 -34 36 -109 61 -167 49 -114 69 -191 79 -299 10 -117 25 -176 66 -266 22 -48 60 -151 85 -230 70 -219 57 -274 -88 -382 -40 -30 -82 -64 -93 -77 -11 -12 -36 -33 -56 -46 -21 -13 -50 -46 -68 -79 -18 -31 -45 -75 -61 -97 -83 -114 -29 -185 134 -176 68 3 74 5 131 51 32 27 80 59 106 73 26 13 56 36 66 50 34 50 70 83 99 89 54 12 80 26 135 70 56 47 176 115 201 115 8 0 30 16 49 36 18 20 58 47 87 60 29 13 85 45 124 71 40 26 109 68 154 93 131 72 264 161 315 211 74 73 74 71 59 643 -14 532 -9 1376 9 1513 15 113 40 174 119 288 81 118 131 156 280 210 132 48 180 54 387 50 146 -3 181 -7 250 -28z" />
    <path d="M5290 8381 c-78 -24 -141 -83 -182 -172 -52 -110 -70 -285 -70 -684 0 -343 25 -830 46 -880 45 -107 184 -81 261 50 32 56 148 163 215 200 l55 30 180 -1 c113 -1 217 -8 279 -18 55 -9 195 -21 310 -26 l211 -9 78 -35 c104 -48 143 -79 179 -143 35 -61 67 -88 130 -104 87 -24 128 13 147 131 30 186 39 1195 12 1335 -32 164 -90 259 -187 306 -69 33 -196 38 -301 10 -139 -36 -262 -45 -583 -46 -317 0 -445 10 -595 46 -83 20 -142 23 -185 10z" />
    <path d="M2530 6903 c-87 -13 -182 -39 -222 -59 -89 -45 -100 -118 -42 -267 31 -79 38 -110 46 -217 14 -182 -3 -360 -33 -360 -5 0 -29 -31 -54 -70 -45 -67 -95 -110 -129 -110 -9 0 -39 -22 -66 -50 -30 -29 -65 -54 -88 -60 -20 -6 -113 -18 -207 -26 -195 -17 -285 -35 -327 -66 -27 -19 -30 -25 -25 -60 7 -56 75 -193 130 -266 26 -34 65 -93 85 -130 64 -117 165 -273 208 -321 23 -25 56 -75 73 -109 18 -35 49 -82 70 -105 21 -23 69 -85 107 -137 39 -52 112 -140 163 -195 51 -54 103 -118 117 -140 13 -23 42 -56 64 -74 22 -18 55 -54 73 -81 19 -28 83 -102 143 -166 60 -64 110 -120 112 -125 6 -14 507 -493 666 -637 84 -75 173 -151 199 -169 48 -33 80 -84 111 -177 17 -48 16 -50 -9 -102 -42 -86 -89 -128 -220 -199 -66 -36 -163 -86 -215 -110 -227 -108 -399 -206 -451 -257 -47 -45 -64 -100 -84 -263 -27 -214 -17 -321 30 -339 9 -3 38 -6 64 -6 55 0 57 1 206 132 241 210 332 267 465 292 41 8 134 34 205 59 72 24 173 52 225 61 52 10 174 33 270 52 420 83 751 145 962 180 l228 38 75 -22 c41 -12 98 -22 126 -22 46 0 55 4 89 38 57 56 64 95 57 312 -4 102 -13 244 -21 315 -39 333 -59 359 -291 390 -66 9 -170 23 -231 31 -135 18 -236 45 -312 83 -31 16 -107 43 -169 60 -116 33 -204 66 -288 108 -27 14 -76 34 -109 45 -33 11 -121 50 -195 88 -75 37 -165 80 -201 95 -36 15 -101 53 -145 84 -44 32 -136 95 -205 142 -81 54 -167 124 -245 199 -66 64 -150 137 -187 164 -38 26 -68 54 -68 61 0 7 -29 45 -64 84 -36 38 -72 85 -82 103 -9 18 -39 66 -66 106 -115 170 -168 321 -175 503 -5 96 -2 129 16 198 29 113 78 204 149 279 37 38 75 93 98 140 37 73 39 82 38 167 -1 92 -36 264 -120 584 -43 164 -68 228 -101 263 -37 39 -130 56 -223 41z" />
    <path d="M9483 6889 c-18 -5 -40 -20 -49 -34 -27 -41 -63 -158 -119 -384 -81 -329 -98 -414 -93 -485 5 -88 58 -193 137 -275 163 -169 214 -451 129 -711 -27 -84 -59 -148 -118 -235 -26 -38 -59 -94 -74 -123 -41 -82 -159 -211 -306 -337 -45 -38 -104 -92 -130 -120 -27 -27 -55 -56 -62 -63 -7 -7 -42 -33 -78 -57 -36 -24 -130 -88 -208 -142 -79 -54 -153 -103 -165 -110 -56 -31 -427 -202 -462 -213 -22 -7 -88 -35 -147 -62 -59 -26 -165 -65 -235 -86 -71 -22 -151 -51 -180 -65 -101 -52 -253 -82 -543 -107 -157 -14 -189 -23 -222 -57 -51 -54 -69 -171 -87 -563 -14 -292 0 -377 72 -420 42 -26 107 -26 193 1 52 16 80 19 123 14 156 -19 752 -129 1086 -199 88 -19 207 -41 265 -50 145 -22 189 -33 305 -77 55 -20 138 -45 185 -54 146 -29 199 -63 491 -309 126 -106 174 -125 239 -91 45 23 63 67 56 134 -3 31 -10 108 -15 171 -12 140 -42 244 -81 279 -41 39 -268 168 -389 222 -58 26 -144 69 -191 96 -47 27 -110 61 -141 77 -71 35 -101 63 -151 140 -48 73 -47 94 5 208 31 67 41 80 91 112 112 72 893 817 977 932 17 22 50 57 75 78 24 20 53 54 63 74 11 20 40 57 66 82 25 25 59 66 75 91 17 25 48 60 69 77 22 18 57 57 77 88 20 31 43 58 50 61 16 6 151 183 249 327 39 56 85 121 103 143 17 23 32 45 32 50 0 4 27 49 61 98 34 49 76 119 94 155 18 36 53 88 78 115 30 34 60 88 96 169 l52 119 -23 24 c-13 14 -36 32 -52 40 -43 23 -169 42 -272 43 -103 0 -194 15 -239 37 -16 9 -50 33 -75 54 -25 21 -63 45 -85 54 -49 21 -92 60 -109 100 -7 17 -30 50 -50 73 l-36 44 0 206 c1 151 5 217 15 242 56 145 67 180 67 228 0 38 -5 61 -19 80 -28 38 -116 80 -193 92 -79 12 -233 12 -277 -1z" />
    <path d="M6032 6441 c-68 -23 -97 -52 -118 -115 -15 -45 -16 -91 -11 -451 10 -582 21 -743 77 -1030 15 -82 36 -195 45 -250 95 -570 111 -645 136 -661 32 -20 63 65 84 231 27 222 36 397 45 950 8 425 14 596 30 755 42 420 39 478 -30 551 l-37 39 -84 0 c-55 -1 -102 -7 -137 -19z" />
    <path d="M6804 6109 c-61 -14 -94 -49 -94 -98 0 -33 8 -50 48 -98 94 -111 160 -163 231 -178 21 -4 55 -27 85 -55 28 -26 80 -61 116 -78 36 -17 87 -50 114 -72 60 -50 121 -86 160 -96 15 -4 49 -29 75 -56 25 -27 67 -60 92 -73 26 -13 77 -49 115 -79 38 -30 93 -67 122 -81 29 -15 71 -42 92 -61 21 -19 68 -50 105 -69 37 -19 93 -55 125 -80 54 -41 394 -256 460 -290 39 -20 69 -19 104 4 49 32 66 69 66 141 0 83 -21 119 -86 149 -27 13 -77 47 -113 76 -35 30 -91 68 -125 86 -33 18 -83 49 -111 69 -27 20 -81 54 -120 75 -38 21 -97 57 -130 80 -33 24 -80 53 -105 65 -25 12 -80 47 -122 77 -42 29 -101 63 -130 75 -62 25 -106 54 -131 84 -9 12 -48 34 -85 48 -46 18 -81 40 -108 67 -50 52 -109 93 -156 108 -21 7 -56 32 -79 56 -23 24 -68 58 -101 75 -33 18 -82 52 -110 77 -73 65 -107 73 -204 52z" />
    <path d="M5207 6061 c-35 -27 -90 -63 -123 -79 -32 -17 -79 -51 -103 -75 -29 -30 -64 -53 -102 -67 -35 -13 -71 -36 -91 -58 -18 -19 -44 -47 -58 -62 -14 -15 -54 -36 -91 -49 -46 -15 -77 -33 -104 -61 -23 -23 -58 -46 -85 -55 -52 -17 -128 -63 -178 -106 -18 -16 -62 -42 -97 -58 -35 -16 -92 -49 -127 -74 -35 -24 -83 -55 -108 -67 -25 -12 -79 -46 -120 -74 -41 -29 -96 -64 -122 -79 -26 -15 -76 -49 -111 -76 -35 -27 -88 -63 -119 -80 -73 -41 -89 -61 -95 -114 -11 -97 50 -197 121 -197 33 0 295 155 542 320 62 41 134 89 162 105 83 49 214 139 261 179 25 21 70 50 100 66 31 16 78 51 105 79 37 37 64 55 100 65 33 10 70 32 106 64 72 63 107 87 151 101 19 6 62 34 94 61 32 27 80 57 106 65 68 23 118 63 177 141 63 83 81 133 62 169 -18 34 -86 65 -143 65 -40 0 -54 -7 -110 -49z" />
    <path d="M6747 5128 c-7 -92 -1 -108 37 -90 28 13 39 52 34 122 -3 42 -5 45 -34 48 l-31 3 -6 -83z" />
    <path d="M7325 5041 c-29 -12 -54 -43 -66 -82 -5 -19 -17 -160 -24 -313 -15 -289 -24 -382 -51 -549 -21 -127 -16 -279 9 -304 30 -30 138 -30 243 0 49 14 114 32 144 41 31 8 76 29 102 46 25 17 83 44 128 61 100 36 144 58 191 96 20 16 56 37 80 47 112 48 150 70 198 116 68 67 102 128 103 182 0 36 -4 46 -33 70 -18 15 -38 28 -44 28 -25 1 -151 69 -208 113 -81 63 -204 145 -296 199 -40 24 -96 62 -125 86 -28 23 -87 60 -131 82 -44 22 -100 51 -124 65 -46 26 -63 29 -96 16z m85 -201 c0 -5 17 -12 38 -16 28 -5 56 -24 117 -83 44 -43 94 -84 110 -92 17 -7 60 -31 97 -51 37 -21 77 -38 88 -38 24 0 123 -54 114 -62 -3 -4 8 -9 25 -13 17 -4 31 -10 31 -15 0 -4 9 -10 21 -13 12 -3 18 -10 14 -16 -3 -6 0 -9 8 -5 17 6 107 -72 107 -93 0 -7 -24 -39 -54 -70 -30 -30 -57 -62 -60 -69 -3 -8 -16 -19 -28 -24 -13 -5 -45 -23 -73 -40 -61 -36 -201 -105 -235 -115 -14 -4 -56 -22 -95 -40 -83 -38 -130 -56 -207 -81 -51 -16 -60 -16 -84 -3 -15 8 -36 28 -46 44 -17 27 -18 45 -13 190 7 196 32 551 45 624 5 30 17 62 26 72 18 20 54 26 54 9z" />
    <path d="M4757 5014 c-21 -14 -66 -38 -101 -54 -35 -15 -82 -45 -104 -64 -22 -20 -79 -59 -126 -86 -47 -27 -116 -72 -152 -100 -36 -27 -70 -50 -76 -50 -6 0 -47 -28 -92 -61 -45 -34 -126 -83 -182 -109 -56 -26 -104 -55 -107 -65 -11 -27 -7 -88 6 -113 7 -12 41 -52 76 -87 48 -49 88 -77 165 -116 55 -29 125 -69 154 -90 30 -21 84 -48 120 -60 79 -26 155 -62 200 -97 42 -32 290 -92 383 -92 54 0 69 4 85 21 28 31 30 145 6 319 -12 80 -26 219 -31 310 -6 91 -16 237 -21 325 -17 255 -33 295 -119 295 -33 0 -57 -7 -84 -26z m56 -203 c10 -7 17 -19 17 -26 0 -6 8 -20 19 -29 20 -19 24 -45 40 -286 6 -80 15 -197 20 -260 19 -202 19 -200 -40 -248 -49 -40 -55 -42 -118 -42 -57 0 -76 5 -143 40 -42 21 -99 47 -127 56 -39 12 -53 22 -57 40 -4 14 -14 24 -24 24 -11 0 -22 5 -25 10 -3 6 -20 10 -37 10 -36 0 -188 77 -188 95 0 7 -17 25 -37 41 -50 36 -90 81 -96 105 -3 13 3 29 19 44 13 13 24 31 24 40 0 9 14 24 31 33 17 9 58 37 92 62 34 24 130 86 214 136 84 51 176 110 206 131 52 37 59 39 124 39 44 -1 76 -6 86 -15z" />
    <path d="M153 463 c9 -2 17 -13 17 -24 0 -10 7 -19 15 -19 14 0 13 3 -1 25 -9 14 -24 24 -33 24 -14 -1 -13 -2 2 -6z" />
    <path d="M570 145 c7 -8 20 -14 29 -14 13 1 13 2 -1 6 -10 2 -18 9 -18 14 0 5 -5 9 -11 9 -8 0 -8 -5 1 -15z" />
    <path d="M1153 3 c87 -2 227 -2 310 0 84 1 13 3 -158 3 -170 0 -239 -2 -152 -3z" />
    <path d="M8863 3 c114 -2 300 -2 415 0 114 1 20 2 -208 2 -228 0 -322 -1 -207 -2z" />
  </g>
  <g id="layer103" fill="#6b2823" stroke="none">
    <path d="M4995 8940 c3 -5 -1 -10 -9 -10 -9 0 -16 -4 -16 -9 0 -5 -17 -20 -37 -32 -21 -13 -42 -27 -48 -31 -5 -5 -31 -22 -56 -38 -59 -38 -115 -102 -188 -212 -58 -89 -66 -112 -102 -293 -7 -33 -17 -80 -24 -105 -28 -100 -35 -154 -45 -359 -9 -157 -9 -241 0 -315 6 -56 17 -216 25 -356 8 -140 19 -277 24 -305 6 -27 15 -95 20 -150 6 -55 18 -164 27 -242 17 -137 17 -145 -1 -203 -15 -49 -28 -70 -63 -101 -27 -23 -55 -39 -70 -39 -29 0 -112 -49 -112 -67 0 -17 -52 -55 -135 -98 -38 -20 -82 -49 -96 -64 -15 -14 -44 -35 -65 -46 -22 -11 -45 -26 -52 -33 -8 -7 -27 -19 -43 -27 -16 -9 -29 -19 -29 -23 0 -4 -22 -21 -50 -37 -27 -16 -50 -32 -50 -35 0 -3 -30 -21 -67 -40 -59 -30 -127 -73 -143 -90 -3 -3 -36 -25 -75 -49 -38 -24 -92 -64 -118 -88 -30 -28 -54 -43 -63 -39 -9 3 -37 6 -64 6 l-48 0 11 38 c6 20 19 48 30 62 40 53 253 265 271 270 26 7 49 75 41 125 -3 22 -26 83 -52 135 -39 81 -57 131 -78 225 -14 62 -29 114 -41 142 -8 17 -14 37 -14 45 0 8 -4 18 -8 24 -15 17 -41 128 -48 204 -20 233 -17 224 -71 312 -36 58 -56 105 -67 157 -18 77 -44 123 -115 201 -23 24 -41 48 -41 52 0 25 -105 102 -157 114 -15 4 -39 15 -52 25 -54 42 -129 35 -341 -32 -69 -22 -148 -51 -175 -65 -45 -21 -64 -24 -170 -24 -110 0 -128 -3 -218 -34 -54 -19 -101 -37 -104 -40 -4 -3 -14 -6 -23 -6 -10 0 -35 -19 -56 -42 -22 -23 -58 -61 -82 -84 -59 -58 -82 -133 -82 -272 0 -111 13 -172 57 -272 14 -30 31 -62 38 -70 7 -8 25 -44 40 -80 15 -36 34 -80 43 -98 24 -51 20 -120 -10 -167 -44 -70 -35 -68 -270 -62 -220 5 -283 15 -351 54 -17 10 -52 25 -77 32 -25 7 -65 19 -90 27 -25 7 -81 16 -125 20 -83 6 -155 35 -155 61 0 7 -4 13 -9 13 -5 0 -12 11 -15 24 -8 31 -19 32 -218 28 l-167 -4 -23 -47 c-28 -58 -45 -72 -85 -68 -17 1 -30 0 -27 -4 2 -4 -4 -9 -14 -11 -29 -8 -52 -69 -52 -137 0 -37 -5 -63 -12 -68 -7 -4 -14 -26 -14 -48 -1 -22 -5 -53 -9 -69 -5 -18 -4 -31 4 -35 6 -4 16 -36 22 -72 6 -35 17 -74 25 -86 8 -12 14 -34 14 -48 0 -22 4 -25 35 -25 45 0 98 -26 91 -45 -3 -9 0 -12 9 -9 8 4 18 -7 26 -30 7 -19 17 -32 22 -29 5 3 19 1 30 -5 51 -23 79 -32 101 -32 35 0 128 -50 122 -66 -4 -9 2 -14 15 -14 15 0 19 -5 15 -16 -3 -8 -2 -12 3 -9 10 6 110 -44 131 -65 3 -3 14 -10 25 -17 11 -6 19 -16 17 -23 -1 -6 2 -9 7 -6 11 7 124 -78 185 -140 47 -46 79 -101 69 -116 -3 -6 -1 -8 5 -5 5 4 22 -8 36 -25 15 -18 31 -38 36 -45 6 -7 10 -14 10 -17 0 -3 24 -47 53 -98 30 -51 57 -100 60 -108 4 -12 6 -12 6 -1 2 27 50 -39 86 -116 20 -43 39 -80 43 -83 4 -3 27 -35 50 -73 24 -37 49 -75 57 -85 7 -9 35 -44 62 -77 27 -33 54 -73 61 -90 14 -31 133 -193 173 -235 80 -85 84 -91 69 -101 -13 -9 -12 -10 2 -6 21 7 45 -18 26 -27 -8 -3 -6 -5 4 -3 26 3 392 -383 369 -391 -6 -2 -8 -8 -5 -14 4 -7 9 -6 14 2 5 9 19 0 46 -30 75 -83 504 -509 546 -542 24 -18 53 -42 66 -53 24 -20 62 -89 62 -111 0 -15 -52 -70 -100 -105 -34 -25 -145 -70 -203 -83 -48 -11 -119 -49 -202 -108 -82 -58 -109 -87 -137 -148 -9 -19 -31 -48 -48 -65 -53 -50 -60 -97 -71 -445 -6 -173 -12 -501 -14 -729 -3 -453 -4 -446 57 -512 42 -45 76 -59 142 -59 35 0 58 -5 66 -15 17 -20 96 -20 156 1 32 11 61 14 92 9 43 -6 46 -5 83 35 22 23 39 49 39 59 0 27 21 41 61 41 47 0 64 22 68 88 1 6 8 12 17 12 9 0 25 11 36 25 13 16 29 25 48 25 16 0 32 5 35 10 3 6 15 10 25 10 10 0 23 6 27 13 4 7 22 17 38 23 24 8 29 15 27 36 -2 19 8 35 38 62 22 20 47 36 55 36 8 0 15 8 15 18 0 11 9 27 20 37 11 10 20 23 20 30 0 7 9 20 20 30 11 10 20 26 20 35 0 10 35 51 78 91 61 59 90 79 142 98 36 13 79 34 95 45 41 30 114 53 210 66 118 17 183 35 271 76 101 47 156 62 274 74 268 28 262 27 369 75 142 63 211 78 346 73 120 -4 160 -17 259 -85 27 -18 60 -36 75 -40 38 -9 113 -52 134 -75 15 -18 17 -45 17 -252 -1 -306 -17 -754 -30 -828 -9 -49 -9 -63 3 -77 23 -26 27 -48 15 -79 -10 -27 -9 -33 15 -62 15 -17 27 -38 27 -46 0 -8 5 -14 11 -14 17 0 38 -32 39 -57 0 -12 4 -24 9 -27 4 -3 7 -16 6 -30 -2 -19 1 -23 16 -19 15 4 19 0 19 -21 l0 -26 294 0 293 0 61 56 c47 42 63 65 68 92 4 21 19 49 35 65 32 31 34 39 17 68 -11 17 -10 22 2 29 38 24 39 25 31 62 -6 24 -5 38 2 41 7 2 6 31 -3 87 -9 61 -12 215 -11 549 1 426 3 466 19 484 23 26 98 77 114 78 19 0 91 40 132 73 45 36 132 55 248 56 113 0 223 -27 323 -81 55 -29 260 -69 354 -69 64 0 278 -62 315 -91 28 -22 104 -41 226 -59 106 -15 230 -55 245 -80 3 -5 25 -14 48 -20 48 -13 128 -64 173 -112 37 -40 94 -123 94 -137 0 -6 29 -41 65 -76 36 -36 65 -69 65 -74 0 -5 7 -11 15 -15 8 -3 15 -12 15 -21 0 -8 5 -15 10 -15 6 0 10 -6 10 -14 0 -8 17 -20 38 -27 20 -6 39 -15 42 -18 3 -3 30 -18 60 -33 57 -28 100 -78 100 -115 0 -24 18 -33 68 -33 33 0 40 -5 62 -40 14 -23 24 -49 22 -60 -2 -14 2 -17 19 -13 19 5 20 3 14 -18 -3 -13 -3 -19 2 -13 4 6 25 14 45 18 31 6 39 3 50 -14 15 -23 53 -27 62 -5 7 20 79 20 96 0 14 -17 50 -20 50 -5 0 17 25 22 55 10 24 -9 26 -13 15 -21 -18 -12 19 -5 100 19 87 26 96 35 109 105 20 119 24 169 12 176 -15 9 -36 213 -33 321 1 47 3 128 4 180 3 166 -23 823 -34 868 -6 24 -16 49 -22 56 -17 18 -36 49 -42 69 -4 9 -10 17 -15 17 -5 0 -9 6 -9 14 0 7 -7 19 -15 26 -8 7 -15 21 -15 31 0 21 -102 106 -137 115 -13 4 -23 10 -23 14 0 12 -160 90 -186 90 -47 0 -181 67 -233 115 -20 19 -39 35 -43 35 -5 0 -8 17 -8 37 0 33 8 44 87 117 148 137 768 759 799 801 30 42 53 68 164 183 36 37 87 94 115 127 27 33 58 67 67 76 10 9 18 21 18 28 0 6 4 11 8 11 5 0 24 21 42 48 19 26 37 49 40 52 3 3 24 34 45 70 21 36 51 76 65 90 15 14 39 45 54 70 31 49 50 80 120 186 25 40 49 86 52 103 4 18 30 58 61 92 30 34 59 71 64 83 5 11 32 53 60 91 27 39 63 90 80 115 26 40 175 200 186 200 3 0 18 14 35 30 17 17 47 43 67 58 20 15 38 29 41 32 3 4 23 14 44 24 22 10 68 38 102 61 35 24 80 46 103 50 47 8 102 33 150 69 19 14 41 26 49 26 7 0 11 4 7 9 -3 5 4 16 15 24 19 13 20 21 14 125 -7 110 -7 111 -23 79 -27 -53 -162 -161 -274 -217 -186 -95 -341 -207 -468 -337 -63 -65 -133 -143 -156 -173 -53 -70 -187 -280 -338 -530 -146 -242 -206 -330 -338 -495 -225 -280 -530 -608 -959 -1029 -301 -296 -337 -340 -322 -389 17 -57 136 -139 392 -271 198 -102 240 -135 271 -207 47 -109 51 -156 61 -699 5 -283 14 -535 19 -560 6 -25 10 -73 11 -108 0 -60 -2 -65 -41 -107 -23 -25 -65 -56 -95 -71 -54 -26 -54 -26 -106 -9 -75 24 -189 89 -283 160 -44 33 -101 75 -127 93 -74 51 -199 170 -247 237 -86 117 -240 251 -337 291 -20 8 -99 30 -177 49 -78 19 -198 50 -267 70 -69 19 -188 44 -265 55 -172 25 -256 42 -410 86 -149 42 -275 62 -431 71 -157 8 -234 -6 -313 -57 -32 -21 -108 -63 -170 -95 -78 -40 -116 -65 -125 -83 -37 -73 -75 -429 -101 -937 -18 -357 -23 -386 -81 -442 -44 -43 -175 -113 -211 -113 -52 0 -189 94 -218 150 -27 52 -45 213 -55 485 -10 285 -13 322 -36 560 -18 179 -38 275 -65 309 -11 14 -77 56 -147 92 -70 37 -154 81 -187 98 -59 31 -60 31 -215 31 -184 0 -292 -15 -455 -63 -157 -45 -212 -57 -380 -82 -161 -25 -250 -44 -425 -93 -69 -19 -165 -44 -214 -56 -49 -12 -126 -40 -170 -63 -73 -38 -102 -63 -311 -273 -165 -165 -259 -251 -332 -303 -148 -105 -235 -157 -298 -177 l-56 -17 -63 31 c-35 17 -80 49 -100 71 -33 37 -36 45 -36 103 1 34 8 96 16 137 12 58 17 195 23 590 8 490 9 518 30 574 28 79 63 137 98 162 15 11 114 65 218 119 197 102 322 180 356 223 26 33 24 77 -5 126 -13 23 -116 128 -228 233 -182 172 -588 588 -758 778 -119 133 -321 378 -360 439 -22 34 -63 93 -91 131 -28 39 -99 149 -158 245 -207 336 -293 474 -333 534 -81 118 -282 307 -381 358 -23 11 -57 34 -75 50 -18 15 -79 51 -135 79 -112 56 -208 124 -276 192 -49 51 -59 92 -47 191 11 81 38 114 136 165 80 41 89 43 150 38 36 -2 92 -14 125 -26 120 -43 522 -160 585 -170 83 -14 381 -14 449 -1 91 17 193 79 224 135 20 37 26 100 16 165 -12 81 -77 277 -119 361 -44 86 -62 234 -37 300 22 57 98 154 137 174 32 17 119 29 302 44 111 8 122 11 228 60 114 54 237 91 298 91 39 0 146 -26 178 -43 22 -12 106 -108 158 -180 68 -94 174 -386 216 -597 17 -85 42 -186 56 -225 14 -38 41 -114 59 -168 19 -54 53 -139 76 -189 34 -75 41 -97 36 -134 -7 -67 -56 -132 -205 -272 -145 -136 -192 -206 -192 -283 0 -40 11 -54 51 -64 35 -9 232 91 305 155 32 28 85 66 120 85 35 20 76 46 92 60 16 13 62 43 103 66 41 23 101 61 134 84 34 24 124 81 200 127 138 83 319 197 423 266 29 20 67 55 83 79 52 75 54 116 29 556 -31 547 -32 1032 -1 1322 24 228 43 335 71 399 10 23 49 85 87 140 61 89 76 103 143 143 178 104 229 116 520 117 207 1 219 0 325 -28 100 -26 129 -29 320 -34 205 -4 241 -2 495 33 63 9 185 16 270 17 176 0 235 -13 370 -83 92 -47 146 -91 165 -132 8 -18 35 -60 59 -94 66 -92 84 -151 106 -352 36 -322 45 -578 31 -971 -6 -195 -16 -413 -22 -485 -16 -208 -17 -475 0 -505 32 -59 87 -113 154 -152 40 -23 146 -90 237 -148 91 -59 184 -117 206 -128 37 -19 130 -77 346 -217 34 -22 88 -56 120 -75 32 -19 90 -61 130 -93 86 -68 247 -151 294 -151 71 0 81 43 33 144 -25 55 -55 89 -184 215 -125 121 -159 161 -180 207 -30 65 -30 66 22 182 76 169 160 421 187 556 35 175 49 224 101 345 23 55 55 132 69 172 34 89 71 145 150 227 53 55 70 67 130 85 37 11 85 21 105 21 63 0 191 -38 301 -90 120 -56 124 -57 318 -70 78 -5 161 -15 184 -22 54 -16 108 -72 148 -150 50 -102 41 -205 -33 -373 -45 -100 -117 -329 -117 -370 0 -90 66 -187 158 -232 56 -28 60 -28 267 -32 136 -2 235 1 280 9 64 11 428 120 570 170 33 12 95 24 137 27 70 5 82 3 134 -22 69 -34 121 -78 138 -119 13 -28 14 -20 17 98 4 125 3 129 -19 144 -13 8 -30 28 -38 43 -8 16 -21 29 -29 29 -8 0 -15 4 -15 9 0 5 -61 9 -135 10 -150 2 -172 -4 -235 -65 -36 -34 -127 -64 -199 -64 -56 0 -221 -52 -253 -79 -31 -27 -143 -42 -359 -48 l-206 -5 -26 33 c-14 19 -33 53 -43 77 -19 48 -14 77 32 179 13 28 24 56 24 62 0 5 6 16 13 23 11 13 26 37 68 118 41 75 57 151 54 255 -2 103 -11 146 -51 228 -29 60 -111 167 -133 174 -9 2 -32 13 -52 24 -20 10 -51 19 -68 19 -21 0 -31 5 -31 15 0 18 -37 20 -42 3 -3 -9 -11 -8 -31 4 -19 13 -45 17 -109 16 -81 -2 -188 16 -188 32 0 10 -70 32 -175 56 -44 9 -90 24 -102 31 -12 8 -64 16 -126 20 l-105 6 -104 -51 c-115 -56 -113 -55 -199 -165 -62 -81 -109 -162 -109 -191 0 -21 -53 -153 -79 -197 -28 -47 -47 -125 -56 -224 -8 -103 -12 -118 -115 -451 -6 -17 -10 -44 -10 -60 0 -17 -20 -69 -45 -116 -25 -48 -45 -93 -45 -100 0 -8 -14 -25 -31 -37 -30 -22 -31 -26 -26 -72 8 -66 25 -94 103 -175 36 -38 86 -96 111 -128 48 -65 80 -96 98 -96 20 0 45 -35 45 -62 0 -27 -27 -58 -51 -58 -17 0 -78 40 -118 78 -16 15 -67 51 -113 80 -47 30 -96 63 -109 75 -13 12 -51 35 -84 52 -33 16 -85 48 -115 71 -30 23 -89 63 -130 89 -83 53 -370 241 -438 286 -23 16 -46 29 -50 29 -11 0 -88 81 -101 107 -22 44 -10 309 24 528 43 278 58 534 59 1000 1 312 -14 457 -59 560 -7 17 -20 61 -29 98 -10 37 -27 84 -39 105 -19 33 -93 138 -107 152 -3 3 -22 26 -42 51 -21 26 -63 64 -95 85 -59 39 -71 48 -125 97 l-32 27 -1103 0 c-734 0 -1102 -3 -1098 -10z" />
    <path d="M2485 6843 c-68 -15 -117 -38 -140 -64 -33 -40 -33 -93 -1 -242 33 -151 39 -239 28 -379 -8 -97 -14 -125 -38 -170 -60 -111 -240 -261 -376 -312 -36 -14 -127 -34 -204 -46 -262 -39 -292 -63 -244 -193 11 -30 49 -96 85 -148 36 -52 65 -99 65 -105 0 -12 253 -409 345 -541 77 -111 237 -301 372 -445 61 -64 143 -155 183 -203 103 -123 571 -596 817 -825 114 -107 242 -229 285 -272 157 -160 167 -265 38 -396 -60 -61 -154 -118 -415 -252 -386 -198 -429 -228 -462 -324 -25 -71 -26 -260 -1 -298 43 -66 120 -32 338 148 78 65 117 89 182 114 165 64 375 131 491 155 65 14 187 41 270 60 84 18 243 50 355 70 112 19 263 49 336 65 339 75 551 100 680 80 72 -11 86 -11 113 3 49 26 63 69 63 195 0 120 -22 363 -45 484 -18 98 -40 145 -77 164 -17 9 -119 33 -227 54 -255 50 -380 82 -521 135 -63 23 -144 51 -180 60 -88 25 -284 103 -465 187 -388 179 -622 338 -950 644 -238 222 -328 328 -447 525 -74 123 -112 228 -134 372 -34 224 8 373 164 576 31 41 69 90 84 110 71 96 66 203 -31 591 -77 306 -83 328 -113 366 -42 52 -136 77 -223 57z" />
    <path d="M9568 6841 c-68 -22 -83 -43 -121 -173 -20 -68 -62 -226 -94 -353 -87 -348 -83 -380 60 -567 77 -101 140 -206 162 -268 38 -108 38 -341 -1 -457 -32 -97 -123 -273 -198 -380 -59 -87 -117 -151 -270 -300 -106 -104 -242 -231 -302 -283 -152 -131 -402 -293 -619 -400 -187 -92 -491 -218 -604 -249 -37 -10 -107 -34 -157 -54 -148 -57 -408 -122 -610 -151 -140 -21 -178 -38 -203 -89 -23 -49 -46 -217 -62 -456 -12 -183 -7 -252 21 -299 28 -46 62 -56 136 -43 34 6 88 11 120 11 71 0 293 -32 453 -65 64 -13 188 -38 276 -55 903 -178 918 -181 1231 -294 106 -38 144 -58 200 -102 38 -29 103 -80 144 -112 123 -97 190 -121 236 -88 16 13 19 30 22 133 4 134 -5 182 -47 240 -41 56 -109 98 -413 255 -148 75 -294 154 -326 175 -72 47 -153 129 -176 177 -33 69 -32 100 4 173 38 76 79 121 310 328 385 348 1056 1050 1343 1405 102 127 316 443 422 625 32 55 81 133 108 173 66 100 87 148 87 208 0 79 -18 88 -225 119 -172 25 -216 35 -270 63 -139 70 -291 206 -338 303 -55 111 -57 332 -7 562 28 128 27 201 -4 232 -44 43 -220 78 -288 56z" />
    <path d="M6067 6376 c-49 -18 -86 -51 -104 -95 -21 -49 -27 -269 -14 -551 13 -304 25 -399 101 -773 33 -164 60 -317 60 -338 0 -88 43 -180 71 -152 23 23 50 366 69 888 6 154 16 368 22 475 18 278 17 448 -2 484 -33 65 -123 92 -203 62z" />
    <path d="M4705 4922 c-49 -26 -127 -72 -171 -102 -221 -149 -504 -330 -547 -351 -45 -22 -107 -79 -107 -98 0 -27 90 -139 143 -178 71 -51 537 -288 647 -328 86 -31 205 -44 238 -26 59 31 72 134 49 396 -9 99 -21 254 -27 345 -27 417 -42 439 -225 342z m108 -111 c10 -7 17 -19 17 -26 0 -6 8 -19 18 -28 20 -19 30 -94 57 -467 22 -303 24 -279 -36 -328 -49 -40 -55 -42 -118 -42 -56 0 -76 5 -136 36 -38 20 -97 46 -130 58 -46 17 -61 27 -63 44 -2 14 -10 22 -22 22 -10 0 -22 5 -25 10 -3 6 -20 10 -36 10 -37 0 -189 76 -189 94 0 8 -22 30 -49 50 -81 60 -101 103 -66 145 14 16 25 34 25 40 0 6 15 20 33 31 41 25 57 36 128 88 33 23 62 42 65 42 3 0 24 13 47 28 23 16 83 52 132 81 50 29 113 70 141 90 48 35 57 37 121 37 44 -1 76 -6 86 -15z" />
    <path d="M7331 4951 c-28 -28 -38 -75 -55 -261 -32 -347 -50 -714 -38 -775 11 -60 58 -88 137 -82 66 5 377 125 515 199 41 22 122 65 179 96 57 30 122 73 143 94 47 47 98 125 98 150 0 26 -72 92 -113 105 -19 6 -124 71 -233 145 -110 75 -217 145 -239 156 -22 11 -64 39 -94 61 -71 53 -222 131 -255 131 -14 0 -35 -9 -45 -19z m79 -111 c0 -5 17 -12 38 -16 28 -5 56 -24 117 -83 44 -43 94 -83 110 -91 17 -8 60 -31 97 -52 36 -21 76 -38 88 -38 24 0 123 -54 114 -62 -3 -4 8 -9 25 -13 17 -4 31 -10 31 -15 0 -4 9 -10 21 -13 12 -3 18 -10 14 -16 -3 -7 0 -8 9 -5 17 7 106 -71 106 -93 0 -7 -24 -39 -54 -70 -30 -30 -57 -62 -60 -69 -3 -8 -16 -19 -28 -24 -13 -6 -45 -24 -73 -40 -99 -57 -149 -82 -234 -115 -47 -18 -104 -42 -126 -53 -47 -23 -98 -43 -177 -68 -51 -16 -60 -16 -84 -3 -15 8 -36 28 -46 44 -17 27 -18 45 -13 190 7 207 33 566 46 630 5 27 17 57 26 67 17 19 53 25 53 8z" />
    <path d="M5 2195 c0 -346 1 -487 2 -312 2 175 2 459 0 630 -1 172 -2 29 -2 -318z" />
    <path d="M13 635 c0 -22 2 -30 4 -17 2 12 2 30 0 40 -3 9 -5 -1 -4 -23z" />
    <path d="M377 313 c17 -2 37 -11 43 -19 7 -8 16 -14 21 -14 5 0 0 9 -11 20 -13 13 -32 19 -52 18 l-33 -1 32 -4z" />
    <path d="M480 168 c0 -4 16 -8 35 -8 19 0 35 2 35 4 0 2 -16 6 -35 8 -19 2 -35 0 -35 -4z" />
    <path d="M11873 163 c-7 -2 -13 -11 -13 -18 0 -7 -6 -16 -12 -18 -8 -3 -5 -6 5 -6 11 -1 21 8 24 19 4 16 16 20 67 23 l61 3 -60 1 c-33 1 -66 -1 -72 -4z" />
    <path d="M613 70 c0 -30 2 -43 4 -28 2 16 2 40 0 55 -2 16 -4 3 -4 -27z" />
    <path d="M1148 3 c83 -2 221 -2 305 0 83 1 15 3 -153 3 -168 0 -236 -2 -152 -3z" />
    <path d="M10373 3 c164 -2 430 -2 590 0 161 1 27 2 -298 2 -324 0 -456 -1 -292 -2z" />
  </g>
  <g id="layer104" fill="#603a20" stroke="none">
    <path d="M4995 8940 c3 -5 -1 -10 -9 -10 -9 0 -16 -4 -16 -9 0 -5 -17 -20 -37 -32 -21 -13 -42 -27 -48 -31 -5 -5 -31 -22 -56 -38 -59 -38 -115 -102 -188 -212 -58 -89 -66 -112 -102 -293 -7 -33 -17 -80 -24 -105 -28 -100 -35 -154 -45 -359 -9 -157 -9 -241 0 -315 6 -56 17 -216 25 -356 8 -140 19 -277 24 -305 6 -27 15 -95 20 -150 6 -55 18 -164 27 -242 17 -137 17 -145 -1 -203 -15 -49 -28 -70 -63 -101 -27 -23 -55 -39 -70 -39 -29 0 -112 -49 -112 -67 0 -17 -52 -55 -135 -98 -38 -20 -82 -49 -96 -64 -15 -14 -44 -35 -65 -46 -22 -11 -45 -26 -52 -33 -8 -7 -27 -19 -43 -27 -16 -9 -29 -19 -29 -23 0 -4 -22 -21 -50 -37 -27 -16 -50 -32 -50 -35 0 -3 -30 -21 -67 -40 -59 -30 -127 -73 -143 -90 -3 -3 -36 -25 -75 -49 -38 -24 -92 -64 -118 -88 -30 -28 -54 -43 -63 -39 -9 3 -38 6 -65 6 -28 0 -48 4 -45 8 3 5 7 21 10 35 3 15 14 40 26 55 47 59 256 267 274 272 26 7 49 75 41 125 -3 22 -26 83 -52 135 -39 81 -57 131 -78 225 -14 62 -29 114 -41 142 -8 17 -14 37 -14 45 0 8 -4 18 -8 24 -15 17 -41 128 -48 204 -20 233 -17 224 -71 312 -36 58 -56 105 -67 157 -18 77 -44 123 -115 201 -23 24 -41 48 -41 52 0 25 -105 102 -157 114 -15 4 -39 15 -52 25 -54 42 -129 35 -341 -32 -69 -22 -148 -51 -175 -65 -45 -21 -64 -24 -170 -24 -110 0 -128 -3 -218 -34 -54 -19 -101 -37 -104 -40 -4 -3 -14 -6 -23 -6 -10 0 -35 -19 -56 -42 -22 -23 -58 -61 -82 -84 -59 -58 -82 -133 -82 -272 0 -111 13 -172 57 -272 14 -30 31 -62 38 -70 7 -8 25 -44 40 -80 15 -36 34 -80 43 -98 24 -51 20 -120 -10 -167 -44 -70 -35 -68 -270 -62 -220 5 -283 15 -351 54 -17 10 -52 25 -77 32 -25 7 -65 19 -90 27 -25 7 -81 16 -125 20 -83 6 -155 35 -155 61 0 7 -4 13 -9 13 -5 0 -12 11 -15 24 -8 31 -19 32 -218 28 l-167 -4 -23 -47 c-28 -58 -45 -72 -85 -68 -17 1 -30 0 -27 -4 2 -4 -4 -9 -14 -11 -29 -8 -52 -69 -52 -137 0 -37 -5 -63 -12 -68 -7 -4 -14 -26 -14 -48 -1 -22 -5 -53 -9 -69 -5 -18 -4 -31 4 -35 6 -4 16 -36 22 -72 6 -35 17 -74 25 -86 8 -12 14 -34 14 -48 0 -22 4 -25 35 -25 45 0 98 -26 91 -45 -3 -9 0 -12 9 -9 8 4 18 -7 26 -30 7 -19 17 -32 22 -29 5 3 19 1 30 -5 51 -23 79 -32 101 -32 35 0 128 -50 122 -66 -4 -9 2 -14 15 -14 15 0 19 -5 15 -16 -3 -8 -2 -12 3 -9 10 6 110 -44 131 -65 3 -3 14 -10 25 -17 11 -6 19 -16 17 -23 -1 -6 2 -9 7 -6 11 7 124 -78 185 -140 47 -46 79 -101 69 -116 -3 -6 -1 -8 5 -5 5 4 22 -8 36 -25 15 -18 31 -38 36 -45 6 -7 10 -14 10 -17 0 -3 24 -47 53 -98 30 -51 57 -100 60 -108 4 -12 6 -12 6 -1 2 27 50 -39 86 -116 20 -43 39 -80 43 -83 4 -3 27 -35 50 -73 24 -37 49 -75 57 -85 7 -9 35 -44 62 -77 27 -33 54 -73 61 -90 14 -31 133 -193 173 -235 80 -85 84 -91 69 -101 -13 -9 -12 -10 2 -6 21 7 45 -18 26 -27 -8 -3 -6 -5 4 -3 26 3 392 -383 369 -391 -6 -2 -8 -8 -5 -14 4 -7 9 -6 14 2 5 9 19 0 46 -30 75 -83 504 -509 546 -542 24 -18 53 -42 66 -53 24 -20 62 -89 62 -111 0 -15 -52 -70 -100 -105 -34 -25 -145 -70 -203 -83 -48 -11 -119 -49 -202 -108 -82 -58 -109 -87 -137 -148 -9 -19 -31 -48 -48 -65 -53 -50 -60 -97 -71 -445 -6 -173 -12 -501 -14 -729 -3 -453 -4 -446 57 -512 42 -45 76 -59 142 -59 35 0 58 -5 66 -15 17 -20 96 -20 156 1 32 11 61 14 91 9 42 -6 46 -5 84 36 21 23 39 49 39 58 0 27 21 41 61 41 47 0 64 22 68 88 1 6 8 12 17 12 9 0 25 11 36 25 13 16 29 25 48 25 16 0 32 5 35 10 3 6 15 10 25 10 10 0 23 6 27 13 4 7 22 17 38 23 24 8 29 15 27 36 -2 19 8 35 38 62 22 20 47 36 55 36 8 0 15 8 15 18 0 11 9 27 20 37 11 10 20 23 20 30 0 7 9 20 20 30 11 10 20 26 20 35 0 10 35 51 78 91 61 59 90 79 142 98 36 13 79 34 95 45 41 30 114 53 210 66 118 17 183 35 271 76 101 47 156 62 274 74 268 28 262 27 369 75 142 63 211 78 346 73 120 -4 160 -17 259 -85 27 -18 60 -36 75 -40 38 -9 113 -52 134 -75 15 -18 17 -45 17 -252 -1 -306 -17 -754 -30 -828 -9 -49 -9 -63 3 -77 23 -26 27 -48 15 -79 -10 -27 -9 -33 15 -62 15 -17 27 -38 27 -46 0 -8 5 -14 11 -14 17 0 38 -32 39 -57 0 -12 4 -24 9 -27 4 -3 7 -16 6 -30 -2 -19 1 -23 16 -19 15 4 19 0 19 -21 l0 -26 294 0 293 0 62 56 c49 45 62 64 67 95 4 22 11 39 17 39 6 0 8 3 4 6 -3 3 6 16 21 29 25 21 26 25 12 50 -13 23 -12 28 0 36 38 22 39 24 31 61 -6 24 -5 38 2 41 7 2 6 31 -3 87 -9 61 -12 215 -11 549 1 426 3 466 19 484 23 26 98 77 114 78 19 0 91 40 132 73 45 36 132 55 248 56 113 0 223 -27 323 -81 55 -29 260 -69 354 -69 64 0 278 -62 315 -91 28 -22 104 -41 226 -59 106 -15 230 -55 245 -80 3 -5 25 -14 48 -20 48 -13 128 -64 173 -112 37 -40 94 -123 94 -137 0 -6 29 -41 65 -76 36 -36 65 -69 65 -74 0 -5 7 -11 15 -15 8 -3 15 -10 15 -16 0 -18 42 -58 69 -65 14 -4 28 -10 31 -13 3 -4 30 -19 60 -34 57 -28 100 -78 100 -115 0 -24 18 -33 68 -33 33 0 40 -5 62 -40 14 -23 24 -49 22 -60 -2 -14 2 -17 19 -13 19 5 20 3 14 -18 -3 -13 -3 -19 2 -13 4 6 25 14 45 18 31 6 39 3 50 -14 15 -23 53 -27 62 -5 7 20 79 20 96 0 14 -17 50 -20 50 -5 0 17 25 22 55 10 24 -9 26 -13 15 -21 -18 -12 23 -4 95 18 75 23 99 39 107 70 16 56 30 206 20 212 -20 13 -38 185 -34 331 5 205 4 285 -7 630 -12 347 -20 436 -45 464 -17 18 -36 49 -42 69 -4 9 -10 17 -15 17 -5 0 -9 6 -9 14 0 7 -7 19 -15 26 -8 7 -15 21 -15 31 0 21 -102 106 -137 115 -13 4 -23 10 -23 14 0 12 -160 90 -186 90 -47 0 -181 67 -233 115 -20 19 -39 35 -43 35 -5 0 -8 17 -8 37 0 33 8 44 87 117 148 137 768 759 799 801 32 44 64 81 164 183 36 37 87 94 115 127 27 33 58 67 67 76 10 9 18 21 18 28 0 6 4 11 8 11 5 0 24 21 42 48 19 26 37 49 40 52 3 3 24 34 45 70 21 36 51 76 65 90 15 14 39 45 54 70 31 49 50 80 120 186 25 40 49 86 52 103 4 18 30 58 61 92 30 34 59 71 64 83 5 11 32 53 60 91 27 39 63 90 80 115 26 40 175 200 186 200 3 0 18 14 35 30 17 17 47 43 67 58 20 15 38 29 41 32 3 4 23 14 44 24 22 10 68 38 102 61 35 24 80 46 103 50 47 8 102 33 150 69 19 14 42 26 50 26 8 0 11 3 8 7 -4 3 -1 13 7 22 15 17 19 51 17 171 l-1 75 -18 -35 c-28 -56 -161 -162 -275 -220 -186 -95 -341 -207 -468 -337 -63 -65 -133 -143 -156 -173 -53 -70 -187 -280 -338 -530 -146 -242 -206 -330 -338 -495 -225 -280 -530 -608 -959 -1029 -301 -296 -337 -340 -322 -389 17 -57 136 -139 392 -271 198 -102 240 -135 271 -207 47 -109 51 -156 61 -699 5 -283 14 -535 19 -560 6 -25 10 -73 11 -108 0 -60 -2 -65 -41 -107 -23 -25 -65 -56 -95 -71 -54 -26 -54 -26 -106 -9 -75 24 -189 89 -283 160 -44 33 -101 75 -127 93 -74 51 -199 170 -247 237 -86 117 -240 251 -337 291 -20 8 -99 30 -177 49 -78 19 -198 50 -267 70 -69 19 -188 44 -265 55 -172 25 -256 42 -410 86 -149 42 -275 62 -431 71 -157 8 -234 -6 -313 -57 -32 -21 -108 -63 -170 -95 -78 -40 -116 -65 -125 -83 -37 -73 -75 -429 -101 -937 -18 -357 -23 -386 -81 -442 -44 -43 -175 -113 -211 -113 -52 0 -189 94 -218 150 -27 52 -45 213 -55 485 -10 285 -13 322 -36 560 -18 179 -38 275 -65 309 -11 14 -77 56 -147 92 -70 37 -154 81 -187 98 -59 31 -60 31 -215 31 -184 0 -292 -15 -455 -63 -157 -45 -212 -57 -380 -82 -161 -25 -250 -44 -425 -93 -69 -19 -165 -44 -214 -56 -49 -12 -126 -40 -170 -63 -73 -38 -102 -63 -311 -273 -165 -165 -259 -251 -332 -303 -148 -105 -235 -157 -298 -177 l-56 -17 -63 31 c-35 17 -80 49 -100 71 -33 37 -36 45 -36 103 1 34 8 96 16 137 12 58 17 195 23 590 8 490 9 518 30 574 28 79 63 137 98 162 15 11 114 65 218 119 197 102 322 180 356 223 26 33 24 77 -5 126 -13 23 -116 128 -228 233 -182 172 -588 588 -758 778 -119 133 -321 378 -360 439 -22 34 -63 93 -91 131 -28 39 -99 149 -158 245 -207 336 -293 474 -333 534 -81 118 -282 307 -381 358 -23 11 -57 34 -75 50 -18 15 -79 51 -135 79 -112 56 -208 124 -276 192 -49 51 -59 92 -47 191 11 81 38 114 136 165 80 41 89 43 150 38 36 -2 92 -14 125 -26 120 -43 522 -160 585 -170 83 -14 381 -14 449 -1 91 17 193 79 224 135 20 37 26 100 16 165 -12 81 -77 277 -119 361 -44 86 -62 234 -37 300 22 57 98 154 137 174 32 17 119 29 302 44 111 8 122 11 228 60 114 54 237 91 298 91 39 0 146 -26 178 -43 22 -12 106 -108 158 -180 68 -94 174 -386 216 -597 17 -85 42 -186 56 -225 14 -38 41 -114 59 -168 19 -54 53 -139 76 -189 34 -75 41 -97 36 -134 -7 -67 -56 -132 -205 -272 -145 -136 -192 -206 -192 -283 0 -40 11 -54 50 -64 28 -7 167 56 176 80 3 7 14 11 26 7 14 -3 19 -1 14 6 -5 8 0 12 13 12 11 0 46 23 77 50 31 28 85 66 120 85 35 20 76 46 92 60 16 13 62 43 103 66 41 23 101 61 134 84 34 24 124 81 200 127 138 83 319 197 423 266 29 20 67 55 83 79 52 75 54 116 29 556 -31 547 -32 1032 -1 1322 24 228 43 335 71 399 10 23 49 85 87 140 61 89 76 103 143 143 178 104 229 116 520 117 207 1 219 0 325 -28 100 -26 129 -29 320 -34 205 -4 241 -2 495 33 63 9 185 16 270 17 176 0 235 -13 370 -83 92 -47 146 -91 165 -132 8 -18 35 -60 59 -94 66 -92 84 -151 106 -352 36 -322 45 -578 31 -971 -6 -195 -16 -413 -22 -485 -16 -208 -17 -475 0 -505 32 -59 87 -113 154 -152 40 -23 146 -90 237 -148 91 -59 184 -117 206 -128 37 -19 130 -77 346 -217 34 -22 88 -56 120 -75 32 -19 90 -61 130 -93 86 -68 247 -151 294 -151 71 0 81 43 33 144 -25 55 -55 89 -184 215 -125 121 -159 161 -180 207 -30 65 -30 66 22 182 76 169 160 421 187 556 35 175 49 224 101 345 23 55 55 132 69 172 34 89 71 145 150 227 53 55 70 67 130 85 37 11 85 21 105 21 63 0 191 -38 301 -90 120 -56 124 -57 318 -70 78 -5 161 -15 184 -22 54 -16 108 -72 148 -150 50 -102 41 -205 -33 -373 -45 -100 -117 -329 -117 -370 0 -90 66 -187 158 -232 56 -28 60 -28 267 -32 136 -2 235 1 280 9 64 11 428 120 570 170 33 12 95 24 137 27 70 5 82 3 134 -22 69 -34 121 -78 138 -119 13 -28 14 -20 17 98 4 125 3 129 -19 144 -13 8 -30 28 -38 43 -8 16 -21 29 -29 29 -8 0 -15 4 -15 9 0 5 -61 9 -135 10 -150 2 -172 -4 -235 -65 -36 -34 -127 -64 -199 -64 -56 0 -221 -52 -253 -79 -31 -27 -143 -42 -359 -48 l-206 -5 -26 33 c-14 19 -33 53 -43 77 -19 48 -14 77 32 179 13 28 24 56 24 62 0 5 6 16 13 23 11 13 26 37 68 118 41 75 57 151 54 255 -2 103 -11 146 -51 228 -29 60 -111 167 -133 174 -9 2 -32 13 -52 24 -20 10 -51 19 -68 19 -21 0 -31 5 -31 15 0 18 -37 20 -42 3 -3 -9 -11 -8 -31 4 -19 13 -45 17 -109 16 -81 -2 -188 16 -188 32 0 10 -70 32 -175 56 -44 9 -90 24 -102 31 -12 8 -64 16 -126 20 l-105 6 -104 -51 c-115 -56 -113 -55 -199 -165 -62 -81 -109 -162 -109 -191 0 -21 -53 -153 -79 -197 -28 -47 -47 -125 -56 -224 -8 -103 -12 -118 -115 -451 -6 -17 -10 -44 -10 -60 0 -17 -20 -69 -45 -116 -25 -48 -45 -93 -45 -100 0 -8 -14 -25 -31 -37 -30 -22 -31 -26 -26 -72 8 -66 24 -93 103 -174 37 -39 87 -97 111 -129 48 -65 80 -96 98 -96 20 0 45 -35 45 -62 0 -27 -27 -58 -51 -58 -17 0 -78 40 -118 78 -16 15 -67 51 -113 80 -47 30 -96 63 -109 75 -13 12 -51 35 -84 52 -33 16 -85 48 -115 71 -30 23 -89 63 -130 89 -83 53 -370 241 -438 286 -23 16 -46 29 -50 29 -11 0 -88 81 -101 107 -22 44 -10 309 24 528 43 278 58 534 59 1000 1 312 -14 457 -59 560 -7 17 -20 61 -29 98 -10 37 -27 84 -39 105 -19 33 -93 138 -107 152 -3 3 -22 26 -42 51 -21 26 -63 64 -95 85 -59 39 -71 48 -125 97 l-32 27 -1103 0 c-734 0 -1102 -3 -1098 -10z m-1845 -3613 c0 -19 -4 -27 -12 -24 -7 2 -13 9 -12 15 1 7 2 24 3 40 1 21 3 24 11 12 5 -8 10 -28 10 -43z" />
    <path d="M6843 6050 c-12 -5 -29 -20 -38 -34 -16 -25 -16 -27 28 -83 60 -78 125 -136 187 -168 28 -14 71 -44 94 -65 24 -22 74 -55 112 -74 38 -19 92 -53 119 -76 28 -23 80 -57 117 -76 37 -18 87 -53 111 -76 25 -23 80 -62 124 -87 87 -50 154 -92 297 -188 51 -33 113 -71 137 -83 24 -13 78 -46 119 -75 42 -28 112 -71 156 -94 44 -23 113 -67 154 -98 41 -30 85 -59 98 -64 56 -22 117 27 116 92 -2 49 -29 81 -99 116 -27 14 -80 47 -116 74 -36 26 -77 53 -93 58 -15 6 -75 42 -134 80 -59 37 -131 81 -160 97 -29 15 -74 46 -100 67 -26 22 -63 46 -82 54 -19 8 -78 46 -130 83 -52 37 -114 77 -137 89 -23 12 -65 41 -93 66 -28 25 -79 58 -113 74 -34 15 -84 48 -112 73 -27 25 -79 60 -115 78 -36 17 -83 49 -105 70 -42 41 -253 165 -295 174 -14 3 -35 1 -47 -4z" />
    <path d="M5215 5999 c-44 -21 -85 -39 -90 -39 -6 0 -44 -27 -85 -60 -41 -33 -102 -73 -135 -89 -33 -16 -78 -48 -100 -71 -24 -25 -72 -58 -120 -80 -50 -24 -96 -56 -123 -84 -24 -25 -57 -48 -73 -51 -16 -4 -64 -32 -107 -64 -42 -31 -109 -76 -149 -99 -39 -23 -93 -59 -120 -79 -26 -20 -79 -55 -118 -76 -38 -22 -95 -57 -126 -78 -31 -21 -83 -51 -117 -67 -33 -16 -86 -49 -119 -74 -32 -24 -84 -59 -115 -77 -94 -53 -116 -97 -83 -162 19 -35 57 -52 96 -44 16 4 59 29 96 57 37 27 100 68 138 90 39 23 117 71 175 108 58 37 134 85 170 106 36 21 85 52 110 70 25 18 61 39 80 47 19 8 58 33 85 56 28 23 84 59 125 81 41 21 98 61 126 87 30 28 71 55 100 65 27 10 76 41 108 68 33 28 89 66 125 85 37 18 89 52 116 75 28 23 71 52 97 66 63 32 110 74 147 132 40 62 48 103 26 125 -24 25 -50 20 -140 -24z" />
    <path d="M4750 4911 c-43 -17 -120 -61 -225 -130 -27 -18 -140 -91 -250 -163 -110 -72 -226 -145 -259 -162 -108 -56 -111 -99 -11 -205 58 -61 79 -74 237 -153 370 -186 497 -238 575 -238 37 0 50 6 85 39 l42 38 -13 259 c-21 446 -39 633 -68 687 -11 21 -52 50 -66 47 -1 -1 -22 -9 -47 -19z m63 -100 c10 -7 17 -19 17 -26 0 -6 8 -19 18 -28 20 -19 30 -94 57 -467 22 -303 24 -279 -36 -328 -49 -40 -55 -42 -118 -42 -56 0 -76 5 -136 36 -38 20 -97 46 -130 58 -46 17 -61 27 -63 44 -2 14 -10 22 -22 22 -10 0 -22 5 -25 10 -3 6 -20 10 -36 10 -37 0 -189 76 -189 94 0 8 -22 30 -49 50 -81 60 -101 103 -66 145 14 16 25 34 25 40 0 6 15 20 33 31 41 25 57 36 128 88 33 23 62 42 65 42 3 0 24 13 47 28 23 16 83 52 132 81 50 29 113 70 141 90 48 35 57 37 121 37 44 -1 76 -6 86 -15z" />
  </g>
  <g id="layer105" fill="#8e2319" stroke="none">
    <path d="M4995 8940 c3 -5 -1 -10 -9 -10 -9 0 -16 -4 -16 -9 0 -5 -17 -20 -37 -32 -21 -13 -42 -27 -48 -31 -5 -5 -31 -22 -56 -38 -59 -38 -115 -102 -188 -212 -58 -89 -66 -112 -102 -293 -7 -33 -17 -80 -24 -105 -28 -100 -35 -154 -45 -359 -9 -157 -9 -241 0 -315 6 -56 17 -216 25 -356 8 -140 19 -277 24 -305 6 -27 15 -95 20 -150 6 -55 18 -164 27 -242 17 -137 17 -145 -1 -203 -15 -49 -28 -70 -63 -101 -27 -23 -55 -39 -70 -39 -29 0 -112 -49 -112 -67 0 -17 -52 -55 -135 -98 -38 -20 -82 -49 -96 -64 -15 -14 -44 -35 -65 -46 -22 -11 -45 -26 -52 -33 -8 -7 -27 -19 -43 -27 -16 -9 -29 -19 -29 -23 0 -4 -22 -21 -50 -37 -27 -16 -50 -32 -50 -35 0 -3 -30 -21 -67 -40 -59 -30 -127 -73 -143 -90 -3 -3 -36 -25 -75 -49 -38 -24 -92 -64 -118 -88 -30 -28 -54 -43 -63 -39 -9 3 -37 6 -64 6 l-48 0 8 36 c10 41 15 48 135 174 49 53 21 28 -62 -55 -150 -148 -153 -152 -153 -194 0 -57 14 -81 48 -81 42 0 149 55 223 115 37 30 90 68 118 85 28 16 83 52 123 80 39 27 75 50 80 50 13 0 693 440 769 498 33 24 71 64 86 89 l26 45 -6 161 c-3 89 -16 266 -29 392 -20 205 -23 286 -23 745 0 444 2 530 18 626 35 224 77 336 172 456 63 81 135 134 286 212 l130 68 247 -4 247 -5 130 -43 130 -43 205 0 c183 1 218 4 320 27 166 37 243 45 439 46 l173 0 114 -56 c186 -91 246 -147 349 -329 107 -189 120 -290 119 -925 0 -471 -2 -507 -28 -745 -15 -137 -30 -324 -33 -415 -7 -193 0 -215 85 -291 47 -41 291 -201 463 -302 42 -25 118 -74 170 -110 52 -35 110 -72 129 -82 58 -29 291 -185 345 -231 96 -81 237 -128 273 -92 41 41 -21 140 -185 294 -130 123 -185 200 -186 262 0 20 12 66 27 102 80 187 190 532 206 650 16 118 29 164 92 329 84 220 129 302 214 388 98 100 158 127 279 127 115 0 215 -25 300 -75 87 -51 118 -58 288 -69 243 -16 255 -20 323 -92 89 -92 134 -201 134 -320 0 -62 -6 -85 -36 -153 -67 -151 -133 -320 -149 -382 -20 -78 -9 -128 41 -183 61 -67 97 -75 344 -75 245 1 301 9 440 64 52 21 140 50 195 64 55 15 147 45 205 68 133 52 164 51 298 -17 53 -27 100 -50 104 -52 3 -2 8 20 10 49 3 45 0 54 -20 67 -13 8 -30 28 -38 43 -8 16 -21 29 -29 29 -8 0 -15 4 -15 9 0 5 -61 9 -135 10 -150 2 -172 -4 -235 -65 -36 -34 -127 -64 -199 -64 -56 0 -221 -52 -253 -79 -31 -27 -143 -42 -359 -48 l-206 -5 -26 33 c-14 19 -33 53 -43 77 -19 48 -14 77 32 179 13 28 24 56 24 62 0 5 6 16 13 23 11 13 26 37 68 118 41 75 57 151 54 255 -2 103 -11 146 -51 228 -29 60 -111 167 -133 174 -9 2 -32 13 -52 24 -20 10 -51 19 -68 19 -21 0 -31 5 -31 15 0 18 -37 20 -42 3 -3 -9 -11 -8 -31 4 -19 13 -45 17 -109 16 -81 -2 -188 16 -188 32 0 10 -70 32 -175 56 -44 9 -90 24 -102 31 -12 8 -64 16 -126 20 l-105 6 -104 -51 c-115 -56 -113 -55 -199 -165 -62 -81 -109 -162 -109 -191 0 -21 -53 -153 -79 -197 -28 -47 -47 -125 -56 -224 -8 -103 -12 -118 -115 -451 -6 -17 -10 -44 -10 -60 0 -17 -20 -69 -45 -116 -25 -48 -45 -93 -45 -100 0 -8 -14 -25 -31 -37 -30 -22 -31 -26 -26 -72 8 -67 25 -95 109 -182 40 -41 88 -96 107 -123 45 -64 60 -78 104 -99 31 -15 37 -22 37 -50 0 -33 -25 -65 -51 -65 -17 0 -78 40 -118 78 -16 15 -67 51 -113 80 -47 30 -96 63 -109 75 -13 12 -51 35 -84 52 -33 16 -85 48 -115 71 -30 23 -89 63 -130 89 -83 53 -370 241 -438 286 -23 16 -46 29 -50 29 -11 0 -88 81 -101 107 -22 44 -10 309 24 528 43 278 58 534 59 1000 1 312 -14 457 -59 560 -7 17 -20 61 -29 98 -10 37 -27 84 -39 105 -19 33 -93 138 -107 152 -3 3 -22 26 -42 51 -21 26 -63 64 -95 85 -59 39 -71 48 -125 97 l-32 27 -1103 0 c-734 0 -1102 -3 -1098 -10z" />
    <path d="M2650 7556 c-90 -22 -281 -85 -335 -112 -45 -21 -63 -24 -170 -24 -110 0 -128 -3 -218 -34 -54 -19 -101 -37 -104 -40 -4 -3 -14 -6 -23 -6 -10 0 -35 -19 -56 -42 -22 -23 -58 -61 -82 -84 -59 -58 -82 -133 -82 -272 0 -111 13 -172 57 -272 14 -30 31 -62 38 -70 7 -8 25 -44 40 -80 15 -36 34 -80 43 -98 24 -51 20 -120 -10 -167 -44 -70 -35 -68 -270 -62 -220 5 -283 15 -351 54 -17 10 -52 25 -77 32 -25 7 -65 19 -90 27 -25 7 -81 16 -125 20 -83 6 -155 35 -155 61 0 7 -4 13 -9 13 -5 0 -12 11 -15 24 -8 31 -19 32 -218 28 l-167 -4 -23 -47 c-28 -58 -45 -72 -85 -68 -17 1 -30 0 -27 -4 2 -4 -4 -9 -14 -11 -29 -8 -52 -69 -52 -137 0 -37 -5 -63 -12 -68 -7 -4 -14 -26 -14 -48 -1 -22 -5 -53 -9 -69 -5 -18 -4 -31 4 -35 6 -4 16 -36 22 -72 6 -35 17 -74 25 -86 8 -12 14 -34 14 -48 0 -22 4 -25 35 -25 45 0 98 -26 91 -45 -3 -9 0 -12 9 -9 8 4 18 -7 26 -30 7 -19 17 -32 22 -29 5 3 19 1 30 -5 51 -23 79 -32 101 -32 35 0 128 -50 122 -66 -4 -9 2 -14 15 -14 15 0 19 -5 15 -16 -3 -8 -2 -12 3 -9 10 6 110 -44 131 -65 3 -3 14 -10 25 -17 11 -6 19 -16 17 -23 -1 -6 2 -9 7 -6 11 7 124 -78 185 -140 47 -46 79 -101 69 -116 -3 -6 -1 -8 5 -5 5 4 22 -8 36 -25 15 -18 31 -38 36 -45 6 -7 10 -14 10 -17 0 -3 24 -47 53 -98 30 -51 57 -100 60 -108 4 -12 6 -12 6 -1 2 27 50 -39 86 -116 20 -43 39 -80 43 -83 4 -3 23 -30 42 -60 19 -30 38 -56 42 -58 5 -2 8 -8 8 -13 0 -5 6 -17 14 -26 8 -10 36 -45 63 -78 27 -33 54 -73 61 -90 14 -31 133 -193 173 -235 80 -85 84 -91 69 -101 -13 -9 -12 -10 2 -6 21 7 45 -18 26 -27 -8 -3 -6 -5 4 -3 26 3 392 -383 369 -391 -6 -2 -8 -8 -5 -14 4 -7 9 -6 14 2 5 9 19 0 46 -30 75 -83 504 -509 546 -542 24 -18 53 -42 66 -53 24 -20 62 -89 62 -111 0 -15 -52 -70 -100 -105 -34 -25 -145 -70 -203 -83 -48 -11 -119 -49 -202 -108 -82 -58 -109 -87 -137 -148 -9 -19 -31 -48 -48 -65 -53 -50 -60 -97 -71 -445 -6 -173 -12 -501 -14 -729 -3 -453 -4 -446 57 -512 42 -45 76 -59 142 -59 35 0 58 -5 66 -15 17 -20 96 -20 156 1 32 11 61 14 91 9 42 -6 46 -5 84 36 21 23 39 49 39 58 0 27 21 41 61 41 47 0 64 22 68 88 1 6 8 12 17 12 9 0 25 11 36 25 13 16 29 25 48 25 16 0 32 5 35 10 3 6 15 10 25 10 10 0 23 6 27 13 4 7 22 17 38 23 24 8 29 15 27 36 -2 19 8 35 38 62 22 20 47 36 55 36 8 0 15 8 15 18 0 11 9 27 20 37 11 10 20 23 20 30 0 7 9 20 20 30 11 10 20 26 20 35 0 10 35 51 78 91 61 59 90 79 142 98 36 13 79 34 95 45 41 30 114 53 210 66 118 17 183 35 271 76 101 47 156 62 274 74 268 28 262 27 369 75 142 63 211 78 346 73 120 -4 160 -17 259 -85 27 -18 60 -36 75 -40 38 -9 113 -52 134 -75 15 -18 17 -45 17 -252 -1 -306 -17 -754 -30 -828 -9 -49 -9 -63 3 -77 23 -26 27 -48 15 -79 -10 -27 -9 -33 15 -62 15 -17 27 -38 27 -46 0 -8 5 -14 11 -14 17 0 38 -32 39 -57 0 -12 4 -24 9 -27 4 -3 7 -16 6 -30 -2 -19 1 -23 16 -19 14 4 19 0 19 -15 0 -11 6 -22 13 -24 20 -6 237 3 237 10 0 4 -22 16 -48 28 -56 25 -138 85 -171 126 -46 56 -52 96 -61 393 -5 154 -9 370 -10 480 0 211 -13 413 -30 476 -14 53 -52 80 -245 179 l-165 85 -138 0 c-150 0 -203 -9 -427 -75 -121 -35 -178 -47 -474 -101 -62 -11 -168 -37 -235 -59 -67 -21 -151 -46 -186 -55 -93 -23 -248 -74 -298 -98 -57 -27 -162 -125 -226 -211 -91 -122 -241 -267 -331 -318 -44 -26 -100 -67 -125 -93 -25 -26 -71 -64 -102 -86 -31 -22 -61 -46 -66 -55 -14 -25 -82 -43 -168 -44 -74 0 -84 3 -128 31 -53 36 -143 141 -153 179 -7 28 12 779 28 1078 11 215 23 269 83 376 68 121 74 125 416 306 206 108 249 136 269 172 14 24 14 30 -2 63 -10 21 -142 159 -313 328 -517 509 -981 1018 -1074 1177 -21 36 -65 100 -98 143 -34 43 -80 113 -103 155 -23 42 -85 142 -137 222 -52 80 -108 169 -123 198 -42 78 -193 266 -258 320 -148 123 -353 253 -463 293 -80 30 -289 193 -305 240 -15 43 -16 212 -2 263 25 89 188 204 303 213 56 5 71 2 146 -31 46 -21 136 -50 200 -66 63 -16 165 -47 227 -69 154 -55 291 -74 492 -68 174 5 216 14 267 59 102 90 94 168 -50 505 -88 204 -94 288 -32 410 47 92 76 129 138 174 63 46 69 47 273 58 173 9 202 16 390 96 73 31 105 39 174 43 102 6 178 -10 223 -46 44 -35 164 -166 195 -213 13 -20 39 -78 57 -130 19 -52 51 -132 71 -178 27 -60 41 -111 51 -185 8 -55 23 -137 34 -181 30 -130 139 -462 176 -538 20 -43 34 -87 34 -110 0 -42 -22 -101 -48 -131 -16 -18 -16 -18 4 -8 12 6 24 18 27 26 3 8 16 16 28 18 29 4 52 68 44 123 -3 22 -26 83 -52 135 -39 81 -57 131 -78 225 -14 62 -29 114 -41 142 -8 17 -14 37 -14 45 0 8 -4 18 -8 23 -15 18 -41 129 -48 205 -20 233 -17 224 -71 312 -36 58 -56 105 -67 157 -18 77 -44 123 -115 201 -23 24 -41 48 -41 52 0 25 -105 101 -157 114 -15 4 -40 16 -55 27 -34 25 -106 30 -178 13z" />
    <path d="M2476 6795 c-22 -8 -54 -27 -73 -41 -31 -24 -33 -28 -33 -87 0 -34 9 -100 20 -147 12 -47 23 -143 27 -215 10 -222 -20 -324 -131 -442 -131 -141 -264 -218 -436 -252 -155 -31 -257 -61 -272 -78 -32 -39 -3 -144 65 -239 20 -28 57 -88 83 -134 60 -109 322 -522 378 -597 147 -195 1044 -1128 1517 -1578 75 -72 154 -157 175 -189 35 -53 39 -66 39 -120 -2 -174 -146 -287 -725 -568 -87 -43 -167 -89 -183 -105 -39 -42 -77 -154 -77 -230 0 -51 4 -67 24 -89 22 -26 25 -27 55 -15 17 8 90 56 162 107 138 99 297 182 441 233 106 37 474 130 653 165 228 45 999 190 1067 202 21 3 99 9 175 13 l137 6 20 48 c20 47 20 50 2 269 -21 269 -31 336 -55 368 -29 41 -106 77 -190 88 -128 17 -494 109 -582 145 -46 19 -121 44 -166 55 -129 33 -525 203 -718 309 -248 136 -458 296 -745 568 -321 304 -462 497 -546 753 -31 95 -54 208 -54 271 0 121 89 344 177 443 99 112 153 222 153 313 0 22 -12 81 -26 129 -14 49 -43 166 -64 262 -55 243 -77 311 -115 352 -27 30 -39 36 -86 38 -32 2 -70 -2 -93 -11z" />
    <path d="M9570 6788 c-51 -35 -76 -95 -124 -303 -24 -104 -58 -243 -75 -307 -35 -130 -38 -185 -16 -248 17 -48 88 -158 135 -210 18 -19 62 -95 99 -169 l66 -134 0 -151 c0 -144 -1 -155 -32 -243 -92 -262 -225 -455 -504 -730 -148 -145 -353 -324 -469 -407 -191 -138 -452 -282 -692 -383 -73 -30 -164 -68 -202 -84 -38 -16 -105 -39 -150 -50 -44 -11 -121 -36 -171 -56 -49 -19 -133 -46 -185 -58 -171 -41 -364 -84 -428 -94 -69 -11 -143 -49 -167 -84 -18 -29 -32 -119 -45 -297 -19 -274 -12 -357 34 -382 12 -7 86 -15 176 -19 163 -7 199 -12 745 -119 165 -33 341 -66 390 -75 134 -24 567 -130 670 -164 191 -62 309 -122 475 -241 167 -119 177 -124 204 -112 31 14 50 72 43 132 -7 58 -41 157 -65 190 -12 16 -132 83 -320 180 -351 181 -427 227 -505 309 -68 71 -96 128 -97 194 0 88 33 134 238 332 414 398 731 723 1285 1314 124 133 315 383 371 486 21 39 80 133 131 210 51 77 105 164 119 193 15 29 42 75 61 101 43 60 74 128 75 162 0 41 -35 77 -93 94 -28 8 -104 26 -168 40 -134 28 -197 53 -301 121 -113 72 -173 128 -222 207 -64 103 -71 136 -70 322 1 132 6 183 28 290 15 71 24 142 21 157 -9 37 -55 74 -117 93 -71 21 -109 19 -148 -7z" />
    <path d="M6057 6319 c-28 -15 -45 -34 -60 -67 -19 -44 -21 -63 -20 -287 2 -338 19 -487 89 -795 36 -158 67 -240 89 -240 18 0 23 18 34 113 41 342 66 1163 37 1231 -28 66 -95 84 -169 45z" />
    <path d="M5134 5911 c-11 -5 -39 -32 -63 -59 -34 -42 -53 -54 -107 -72 -95 -32 -166 -106 -118 -124 56 -21 127 6 193 74 33 34 72 63 95 71 55 20 88 53 84 87 -2 22 -8 27 -33 29 -16 1 -39 -2 -51 -6z" />
    <path d="M6980 5905 c-19 -23 14 -63 82 -100 31 -17 79 -53 106 -82 52 -54 103 -78 157 -71 24 2 31 8 33 29 4 36 -43 74 -116 95 -45 13 -67 27 -107 69 -27 29 -60 58 -72 64 -31 16 -68 14 -83 -4z" />
    <path d="M11896 5729 c-59 -45 -122 -82 -187 -109 -53 -23 -144 -72 -201 -109 -120 -78 -313 -241 -337 -283 -9 -16 -40 -59 -69 -96 -72 -91 -229 -329 -281 -427 -56 -103 -204 -327 -318 -480 -160 -214 -516 -598 -992 -1067 -171 -169 -320 -322 -331 -340 -55 -91 1 -140 353 -313 203 -99 262 -143 305 -223 76 -142 87 -211 102 -607 5 -154 15 -406 21 -560 12 -276 11 -281 -10 -335 -16 -44 -34 -67 -83 -108 -90 -75 -115 -85 -208 -80 -74 3 -81 5 -146 50 -38 26 -111 83 -163 128 -51 44 -114 89 -139 100 -58 26 -226 190 -337 330 -143 180 -197 210 -555 310 -80 22 -183 51 -230 65 -47 14 -173 41 -280 60 -107 19 -235 46 -285 60 -269 76 -321 87 -437 92 -148 7 -177 0 -353 -89 -178 -90 -221 -119 -234 -160 -21 -68 -32 -257 -41 -728 -9 -521 -11 -543 -64 -619 -33 -47 -107 -103 -193 -146 l-68 -34 114 -3 114 -3 59 54 c46 42 59 62 64 92 4 22 11 39 17 39 6 0 8 3 4 6 -3 3 6 16 21 29 25 21 26 25 12 50 -13 23 -12 28 0 36 38 22 39 24 31 61 -6 24 -5 38 2 41 7 2 6 31 -3 87 -9 61 -12 215 -11 549 1 426 3 466 19 484 23 26 98 77 114 78 19 0 91 40 132 73 45 36 132 55 248 56 113 0 223 -27 323 -81 55 -29 260 -69 354 -69 64 0 278 -62 315 -91 28 -22 104 -41 226 -59 106 -15 230 -55 245 -80 3 -5 25 -14 48 -20 48 -13 128 -64 173 -112 37 -40 94 -123 94 -137 0 -6 29 -41 65 -76 36 -36 65 -70 65 -75 0 -6 5 -10 10 -10 6 0 14 -8 17 -17 11 -29 44 -61 69 -67 13 -4 46 -20 74 -36 28 -17 55 -30 59 -30 14 0 61 -75 61 -97 0 -24 18 -33 68 -33 33 0 40 -5 62 -41 14 -22 24 -47 22 -55 -2 -9 5 -14 18 -14 17 0 20 -4 15 -22 -3 -13 -3 -18 2 -12 4 6 25 14 45 18 31 6 39 3 50 -14 15 -23 53 -27 62 -5 7 20 79 20 96 0 16 -19 46 -19 54 0 6 18 15 19 53 4 22 -8 25 -12 13 -20 -20 -13 28 -3 104 23 90 29 92 31 104 95 18 98 25 183 14 183 -18 0 -38 185 -34 330 5 206 4 286 -7 630 -12 347 -20 436 -45 464 -17 18 -36 49 -42 69 -4 9 -10 17 -15 17 -5 0 -9 6 -9 14 0 7 -7 19 -15 26 -8 7 -15 21 -15 31 0 21 -102 106 -137 115 -13 4 -23 10 -23 14 0 12 -160 90 -186 90 -47 0 -181 67 -233 115 -20 19 -39 35 -43 35 -5 0 -8 17 -8 37 0 33 8 44 87 117 148 137 768 759 799 801 32 44 64 81 164 183 36 37 87 94 115 127 27 33 58 67 67 76 10 9 18 21 18 28 0 6 4 11 9 11 5 0 18 15 30 33 11 17 28 41 38 52 10 11 36 49 58 85 21 36 51 76 65 90 15 14 39 45 54 70 31 49 50 80 120 186 25 40 49 86 52 103 4 18 30 58 61 92 30 34 59 71 64 83 5 11 32 53 60 91 27 39 63 90 80 115 26 40 175 200 186 200 3 0 18 14 35 30 17 17 47 43 67 58 20 15 38 29 41 32 3 4 23 14 44 24 22 10 68 38 102 61 35 24 80 46 103 50 47 8 102 33 150 69 19 14 42 26 50 26 8 0 11 3 8 7 -4 3 0 14 9 24 10 11 14 31 12 56 l-3 39 -89 -67z" />
    <path d="M7393 5624 c-4 -10 2 -33 13 -53 15 -28 36 -44 93 -72 41 -20 98 -57 127 -83 41 -36 60 -46 88 -46 26 0 38 6 46 21 17 31 7 45 -57 78 -69 36 -82 46 -111 88 -25 36 -87 68 -149 78 -36 6 -44 4 -50 -11z" />
    <path d="M4680 5619 c-32 -13 -68 -47 -85 -79 -8 -15 -44 -43 -84 -65 -77 -41 -97 -73 -68 -102 23 -23 68 -8 123 40 26 23 84 60 128 82 125 62 154 136 52 134 -22 0 -52 -5 -66 -10z" />
    <path d="M4750 4911 c-43 -17 -120 -61 -225 -130 -27 -18 -140 -91 -250 -163 -110 -72 -226 -145 -259 -162 -108 -56 -111 -99 -11 -205 58 -61 79 -74 237 -153 370 -186 497 -238 575 -238 37 0 50 6 85 39 l42 38 -13 259 c-21 446 -39 633 -68 687 -11 21 -52 50 -66 47 -1 -1 -22 -9 -47 -19z m63 -100 c10 -7 17 -19 17 -26 0 -6 8 -19 18 -28 20 -19 30 -94 57 -467 22 -303 24 -279 -36 -328 -49 -40 -55 -42 -118 -42 -56 0 -76 5 -136 36 -38 20 -97 46 -130 58 -46 17 -61 27 -63 44 -2 14 -10 22 -22 22 -10 0 -22 5 -25 10 -3 6 -20 10 -36 10 -37 0 -189 76 -189 94 0 8 -22 30 -49 50 -81 60 -101 103 -66 145 14 16 25 34 25 40 0 6 15 20 33 31 38 23 52 33 126 85 69 48 66 47 216 136 66 39 143 88 171 108 48 35 57 37 121 37 44 -1 76 -6 86 -15z" />
    <path d="M7358 4910 c-15 -11 -30 -38 -37 -64 -25 -100 -68 -738 -58 -862 13 -166 109 -162 498 20 352 165 509 276 509 360 0 23 -47 72 -87 91 -33 15 -180 110 -578 371 -71 46 -189 104 -213 104 -5 0 -21 -9 -34 -20z m52 -70 c0 -5 17 -12 38 -16 28 -5 56 -24 117 -83 44 -43 94 -83 110 -91 17 -8 60 -31 97 -52 36 -21 76 -38 88 -38 24 0 123 -54 114 -62 -3 -4 8 -9 25 -13 17 -4 31 -10 31 -15 0 -4 9 -10 21 -13 12 -3 18 -10 14 -16 -3 -7 0 -8 9 -5 17 7 106 -71 106 -93 0 -7 -24 -39 -54 -70 -30 -30 -57 -62 -60 -69 -3 -8 -16 -19 -28 -24 -13 -6 -45 -24 -73 -40 -99 -57 -149 -82 -234 -115 -47 -18 -104 -42 -126 -53 -47 -23 -98 -43 -177 -68 -51 -16 -60 -16 -84 -3 -15 8 -36 28 -46 44 -17 27 -18 45 -13 190 7 207 33 566 46 630 5 27 17 57 26 67 17 19 53 25 53 8z" />
    <path d="M3511 4841 c-17 -11 -8 -39 15 -48 20 -8 49 21 41 41 -7 18 -34 21 -56 7z" />
    <path d="M8634 4835 c-8 -20 13 -45 38 -45 24 0 34 26 18 45 -16 19 -49 19 -56 0z" />
    <path d="M5 2335 c0 -269 1 -378 2 -242 2 137 2 357 0 490 -1 133 -2 22 -2 -248z" />
    <path d="M4 1165 c0 -115 2 -161 3 -102 2 59 2 154 0 210 -1 56 -3 8 -3 -108z" />
    <path d="M12 630 c0 -19 2 -27 5 -17 2 9 2 25 0 35 -3 9 -5 1 -5 -18z" />
    <path d="M18 555 c2 -19 6 -35 8 -35 2 0 4 16 4 35 0 19 -4 35 -8 35 -4 0 -6 -16 -4 -35z" />
    <path d="M151 463 c10 -2 19 -13 22 -24 3 -10 10 -19 16 -19 7 0 5 10 -5 25 -9 14 -24 24 -33 24 -15 -1 -15 -2 0 -6z" />
    <path d="M368 313 c12 -2 30 -2 40 0 9 3 -1 5 -23 4 -22 0 -30 -2 -17 -4z" />
    <path d="M11873 163 c-7 -2 -13 -11 -13 -18 0 -7 -6 -16 -12 -19 -7 -3 -4 -5 7 -3 11 1 20 9 20 17 0 11 17 16 65 21 l65 6 -60 0 c-33 1 -66 -1 -72 -4z" />
    <path d="M11710 73 c-3 -29 -1 -48 3 -44 5 5 7 28 5 52 l-3 44 -5 -52z" />
    <path d="M613 65 c0 -27 2 -38 4 -22 2 15 2 37 0 50 -2 12 -4 0 -4 -28z" />
    <path d="M773 3 c26 -2 68 -2 95 0 26 2 4 3 -48 3 -52 0 -74 -1 -47 -3z" />
    <path d="M1252 3 c65 -2 171 -2 236 0 64 1 11 3 -118 3 -129 0 -182 -2 -118 -3z" />
    <path d="M3643 3 c9 -2 25 -2 35 0 9 3 1 5 -18 5 -19 0 -27 -2 -17 -5z" />
    <path d="M8863 3 c115 -2 299 -2 410 0 111 1 18 2 -208 2 -225 0 -316 -1 -202 -2z" />
    <path d="M10323 3 c136 -2 358 -2 495 0 136 1 24 2 -248 2 -272 0 -384 -1 -247 -2z" />
    <path d="M11433 3 c31 -2 83 -2 115 0 31 2 5 3 -58 3 -63 0 -89 -1 -57 -3z" />
  </g>


</svg>