<?xml version="1.0" encoding="utf-8"?>
<svg width="48" height="48" viewBox="0 0 100 100" xmlns="http://www.w3.org/2000/svg">
  <defs>
    <style>.cls-1{fill:#d8b27d;}.cls-1,.cls-2,.cls-3{stroke:#333;stroke-miterlimit:10;stroke-width:8px;}.cls-2{fill:#d8b27d;}.cls-3{fill:#fcc875;}</style>
  </defs>
  <circle class="cls-1" cx="30.27" cy="47.23" r="11.59" transform="matrix(0.060351, -0.998177, 0.998178, 0.060352, -26.039724, 95.474564)"/>
  <circle class="cls-1" cx="74.73" cy="47.1" r="11.59" transform="matrix(0.060352, -0.998178, 0.998177, 0.060352, 10.68079, 152.381897)"/>
  <circle class="cls-1" cx="532.88" cy="478.39" r="30.26" transform="matrix(-0.398109, 0.917337, -0.917339, -0.398111, 702.641235, -251.410843)"/>
  <path class="cls-2" d="M 85.57 33.596 C 85.77 50.186 69.05 61.456 54.47 61.596 C 39.89 61.736 23.4 49.896 23.19 32.806 C 22.97 13.846 39.34 16.046 53.91 15.846 C 68.48 15.646 85.34 15.616 85.56 33.566" transform="matrix(-0.939692, -0.342021, 0.342021, -0.939692, 92.535742, 91.898602)"/>
  <path class="cls-3" d="M 80.113 21.676 C 81.743 33.276 67.983 48.066 57.343 48.196 C 46.703 48.326 33.073 33.146 34.593 21.196 C 36.363 7.196 46.723 7.356 57.363 7.196 C 68.003 7.036 78.363 9.076 80.103 21.676" transform="matrix(-0.939693, -0.342019, 0.342019, -0.939693, 101.88646, 73.327269)"/>
  <path class="cls-3" d="M 85.937 50.076"/>
  <path class="cls-4" d="M 30.987 19.346"/>
</svg>