<svg width="48" height="48" xmlns="http://www.w3.org/2000/svg" viewBox="0 0 162.7 162.87"><defs><style>.cls-1{fill:#875f45;}.cls-1,.cls-2{stroke:#333;stroke-miterlimit:10;stroke-width:8px;}.cls-2{fill:#ba363f;}</style></defs><rect class="cls-1" x="-3.32" y="59.4" width="127.08" height="15.72" rx="4.33" ry="4.33" transform="translate(-37.45 105.2) rotate(-45)"/><rect class="cls-2" x="81.53" y="6.54" width="58.68" height="18.84" rx="4.33" ry="4.33" transform="translate(170.46 148.57) rotate(-135)"/><path class="cls-2" d="M142.16-33.18,112.09-3.11A4.26,4.26,0,0,0,111-1.2L106.5,15.59a4.26,4.26,0,0,0,5.21,5.21l16.79-4.49a4.26,4.26,0,0,0,1.91-1.1l30.07-30.07a4.26,4.26,0,0,0,1.1-1.91l4.49-16.79a4.26,4.26,0,0,0-5.21-5.21l-16.79,4.49A4.26,4.26,0,0,0,142.16-33.18Z" transform="translate(-7.52 42.92)"/></svg>