<svg width="48" height="48" xmlns="http://www.w3.org/2000/svg" xmlns:xlink="http://www.w3.org/1999/xlink" viewBox="0 0 90.73 94.15"><defs><style>.cls-1{isolation:isolate;}.cls-2,.cls-3{fill:#fbb03b;stroke:#333;}.cls-2,.cls-3,.cls-8{stroke-miterlimit:10;}.cls-2{stroke-width:8px;}.cls-3{stroke-width:5px;}.cls-4,.cls-8{fill:none;}.cls-5{opacity:0.15;fill:url(#radial-gradient);}.cls-5,.cls-6,.cls-7,.cls-8{mix-blend-mode:screen;}.cls-6{opacity:0.5;fill:url(#radial-gradient-2);}.cls-7{fill:url(#radial-gradient-3);}.cls-8{stroke:#fff;stroke-width:2px;opacity:0.03;}</style><radialGradient id="radial-gradient" cx="72.97" cy="17.76" r="8.01" gradientUnits="userSpaceOnUse"><stop offset="0" stop-color="#3fa9f5"/><stop offset="0.73" stop-color="#ff931e"/><stop offset="1" stop-color="#3fa9f5"/></radialGradient><radialGradient id="radial-gradient-2" cx="72.97" cy="17.76" r="4.01" gradientUnits="userSpaceOnUse"><stop offset="0.15" stop-color="#fff"/><stop offset="0.18" stop-color="#ffe3e4"/><stop offset="0.25" stop-color="#ff9da1"/><stop offset="0.32" stop-color="#ff666c"/><stop offset="0.38" stop-color="#ff3e45"/><stop offset="0.42" stop-color="#ff262e"/><stop offset="0.45" stop-color="#ff1d25"/><stop offset="0.46" stop-color="#f6242f"/><stop offset="0.57" stop-color="#b55375"/><stop offset="0.66" stop-color="#8278ac"/><stop offset="0.75" stop-color="#5e93d4"/><stop offset="0.81" stop-color="#47a3ec"/><stop offset="0.85" stop-color="#3fa9f5"/><stop offset="0.86" stop-color="#40aaf1"/><stop offset="0.86" stop-color="#45ace4"/><stop offset="0.87" stop-color="#4bb0d0"/><stop offset="0.88" stop-color="#55b5b3"/><stop offset="0.89" stop-color="#61bc8d"/><stop offset="0.9" stop-color="#70c460"/><stop offset="0.9" stop-color="#7ac943"/><stop offset="0.9" stop-color="#76c74f"/><stop offset="0.91" stop-color="#68bf7b"/><stop offset="0.93" stop-color="#5bb8a0"/><stop offset="0.94" stop-color="#51b3bf"/><stop offset="0.95" stop-color="#49aed7"/><stop offset="0.97" stop-color="#43abe8"/><stop offset="0.98" stop-color="#40aaf2"/><stop offset="1" stop-color="#3fa9f5"/></radialGradient><radialGradient id="radial-gradient-3" cx="72.97" cy="17.76" r="3.34" gradientUnits="userSpaceOnUse"><stop offset="0.15" stop-color="#fff"/><stop offset="0.28" stop-color="#c2c2c2"/><stop offset="0.43" stop-color="#888"/><stop offset="0.56" stop-color="#575757"/><stop offset="0.69" stop-color="#313131"/><stop offset="0.81" stop-color="#161616"/><stop offset="0.92" stop-color="#060606"/><stop offset="1"/></radialGradient></defs><g class="cls-1"><g id="weapons"><circle class="cls-2" cx="57.47" cy="72.53" r="34.61" transform="translate(-37.25 108.52) rotate(-86.54)"/><rect class="cls-3" x="70.82" y="34.02" width="22.27" height="22.27" rx="2.02" ry="2.02" transform="translate(37.08 -61.72) rotate(45)"/><line class="cls-4" x1="72.97" y1="17.76" x2="76.76" y2="19.05"/><circle class="cls-4" cx="72.97" cy="17.76" r="3.34"/><circle class="cls-4" cx="72.97" cy="17.76" r="4.01"/><polyline class="cls-4" points="72.97 17.76 69.57 19.67 72.97 17.76 76.38 15.86 72.97 17.76 71.07 14.36 72.97 17.76 74.88 21.17 72.97 17.76 56.9 13.68 72.97 17.76 89.05 21.85 72.97 17.76 77.06 1.69 72.97 17.76 68.89 33.83 72.97 17.76 68.23 15.62 72.97 17.76 77.71 19.91 72.97 17.76 75.12 13.02 72.97 17.76 70.83 22.5 72.97 17.76 55.66 25.06 72.97 17.76 90.29 10.46 72.97 17.76 65.67 0.45 72.97 17.76 80.27 35.08 72.97 17.76 60.72 14.12 72.97 17.76 85.23 21.4 72.97 17.76 76.61 5.5 72.97 17.76 69.33 30.02 72.97 17.76 70.55 18.83 72.97 17.76 75.4 16.69 72.97 17.76 71.9 15.34 72.97 17.76 74.04 20.19 72.97 17.76 71.56 17.12 72.97 17.76 74.39 18.4 72.97 17.76 73.61 16.35 72.97 17.76 72.33 19.18 72.97 17.76 64.45 17.49 72.97 17.76 81.5 18.03 72.97 17.76 73.24 9.23 72.97 17.76 72.7 26.29 72.97 17.76 58.82 15.67 72.97 17.76 87.13 19.85 72.97 17.76 75.07 3.61 72.97 17.76 70.88 31.91 72.97 17.76 55.55 11.56 72.97 17.76 90.4 23.96 72.97 17.76 79.17 0.34 72.97 17.76 66.77 35.19 72.97 17.76 64.53 19.24 72.97 17.76 81.42 16.29 72.97 17.76 71.5 9.32 72.97 17.76 74.45 26.21 72.97 17.76 66.64 15.01 72.97 17.76 79.3 20.52 72.97 17.76 75.73 11.43 72.97 17.76 70.22 24.09 72.97 17.76 60.33 4.97 72.97 17.76 85.62 30.56 72.97 17.76 85.77 5.11 72.97 17.76 60.18 30.41 72.97 17.76 61.44 11.28 72.97 17.76 84.51 24.24 72.97 17.76 79.45 6.23 72.97 17.76 66.49 29.3 72.97 17.76 64.25 12.85 72.97 17.76 81.69 22.67 72.97 17.76 77.88 9.04 72.97 17.76 68.06 26.48"/><circle class="cls-5" cx="72.97" cy="17.76" r="8.01"/><circle class="cls-6" cx="72.97" cy="17.76" r="4.01"/><circle class="cls-7" cx="72.97" cy="17.76" r="3.34"/><polyline class="cls-8" points="72.97 17.76 69.57 19.67 72.97 17.76 76.38 15.86 72.97 17.76 71.07 14.36 72.97 17.76 74.88 21.17 72.97 17.76 56.9 13.68 72.97 17.76 89.05 21.85 72.97 17.76 77.06 1.69 72.97 17.76 68.89 33.83 72.97 17.76 68.23 15.62 72.97 17.76 77.71 19.91 72.97 17.76 75.12 13.02 72.97 17.76 70.83 22.5 72.97 17.76 55.66 25.06 72.97 17.76 90.29 10.46 72.97 17.76 65.67 0.45 72.97 17.76 80.27 35.08 72.97 17.76 60.72 14.12 72.97 17.76 85.23 21.4 72.97 17.76 76.61 5.5 72.97 17.76 69.33 30.02 72.97 17.76 70.55 18.83 72.97 17.76 75.4 16.69 72.97 17.76 71.9 15.34 72.97 17.76 74.04 20.19 72.97 17.76 71.56 17.12 72.97 17.76 74.39 18.4 72.97 17.76 73.61 16.35 72.97 17.76 72.33 19.18 72.97 17.76 64.45 17.49 72.97 17.76 81.5 18.03 72.97 17.76 73.24 9.23 72.97 17.76 72.7 26.29 72.97 17.76 58.82 15.67 72.97 17.76 87.13 19.85 72.97 17.76 75.07 3.61 72.97 17.76 70.88 31.91 72.97 17.76 55.55 11.56 72.97 17.76 90.4 23.96 72.97 17.76 79.17 0.34 72.97 17.76 66.77 35.19 72.97 17.76 64.53 19.24 72.97 17.76 81.42 16.29 72.97 17.76 71.5 9.32 72.97 17.76 74.45 26.21 72.97 17.76 66.64 15.01 72.97 17.76 79.3 20.52 72.97 17.76 75.73 11.43 72.97 17.76 70.22 24.09 72.97 17.76 60.33 4.97 72.97 17.76 85.62 30.56 72.97 17.76 85.77 5.11 72.97 17.76 60.18 30.41 72.97 17.76 61.44 11.28 72.97 17.76 84.51 24.24 72.97 17.76 79.45 6.23 72.97 17.76 66.49 29.3 72.97 17.76 64.25 12.85 72.97 17.76 81.69 22.67 72.97 17.76 77.88 9.04 72.97 17.76 68.06 26.48"/></g></g></svg>