<?xml version="1.0" encoding="utf-8"?>
<svg width="48" height="48" viewBox="0 0 100 100" xmlns="http://www.w3.org/2000/svg">
  <defs>
    <style>.cls-1{fill:#a67c52;}.cls-1,.cls-2{stroke:#333;stroke-miterlimit:10;stroke-width:8px;}.cls-2{fill:#fcc875;}</style>
    <style>.cls-1{fill:#875f45;}.cls-1,.cls-2,.cls-3{stroke:#333;stroke-miterlimit:10;stroke-width:8px;}.cls-2{fill:#a67c52;}.cls-3{fill:#fcc875;}</style>
  </defs>
  <circle class="cls-2" cx="30.27" cy="47.23" r="11.59" transform="matrix(-0.398108, 0.917339, -0.917338, -0.398109, 119.400101, 69.257576)" style="fill: rgb(119, 65, 170);"/>
  <circle class="cls-2" cx="74.73" cy="47.1" r="11.59" transform="matrix(-0.398109, 0.917338, -0.917337, -0.398109, 95.151993, 13.342063)" style="fill: rgb(119, 65, 170);"/>
  <circle class="cls-1" cx="50.88" cy="73.39" r="30.26" transform="matrix(-0.398109, 0.917338, -0.917338, -0.398109, 139.140709, 27.364955)" style="fill: rgb(119, 65, 170);"/>
  <path class="cls-2" d="M 71.142 45.742 L 78.512 38.082 C 81.348 35.128 86.319 36.351 87.459 40.284 C 87.46 40.287 87.461 40.29 87.462 40.292 L 90.462 50.503 C 91.598 54.437 88.049 58.127 84.073 57.144 C 84.073 57.144 84.072 57.143 84.072 57.143 L 73.702 54.592 C 69.728 53.61 68.306 48.696 71.142 45.742 Z" transform="matrix(-0.939693, -0.34202, 0.34202, -0.939693, 139.134783, 117.788193)" style="fill: rgb(0, 169, 158);"/>
  <path class="cls-2" d="M 59.322 49.574 L 48.682 49.574 C 44.587 49.585 42.015 45.159 44.053 41.607 C 44.059 41.596 44.066 41.585 44.072 41.574 L 49.392 32.364 C 51.436 28.815 56.555 28.81 58.606 32.355 C 58.608 32.358 58.61 32.36 58.612 32.364 L 63.932 41.574 C 65.995 45.112 63.455 49.557 59.359 49.574 C 59.347 49.574 59.334 49.574 59.322 49.574 Z" transform="matrix(-0.939693, -0.34202, 0.34202, -0.939693, 91.346784, 94.501881)" style="fill: rgb(0, 169, 158);"/>
  <path class="cls-2" d="M 37.328 28.086 L 29.958 20.426 C 27.122 17.472 22.151 18.695 21.01 22.628 C 21.009 22.631 21.009 22.634 21.008 22.636 L 18.008 32.846 C 16.872 36.782 20.421 40.47 24.396 39.488 C 24.397 39.488 24.397 39.486 24.398 39.486 L 34.768 36.936 C 38.742 35.954 40.164 31.039 37.328 28.086 Z" transform="matrix(-0.939693, -0.34202, 0.34202, -0.939693, 45.407497, 65.948562)" style="fill: rgb(0, 169, 158);"/>
</svg>