<svg width="48" height="48" xmlns="http://www.w3.org/2000/svg" viewBox="0 0 89.52 89.52"><defs><style>.cls-1,.cls-4{fill:#c69c6d;}.cls-1,.cls-2,.cls-4{stroke:#333;stroke-miterlimit:10;}.cls-1,.cls-2{stroke-width:3px;}.cls-2{fill:#ccc;}.cls-3{fill:#fcc875;}.cls-4{stroke-width:5px;}</style></defs><g id="Layer_3" data-name="Layer 3"><rect class="cls-1" x="39.55" y="50.87" width="63.69" height="5" rx="0.67" ry="0.67" transform="translate(-32.43 47.18) rotate(-45)"/><path class="cls-2" d="M98.46,24.74,83.64,33.68a1.08,1.08,0,0,0-.21,1.69l5.88,5.88A1.08,1.08,0,0,0,91,41l8.94-14.82A1.08,1.08,0,0,0,98.46,24.74Z" transform="translate(-15.6 -18.94)"/></g><g id="weapons"><path class="cls-3" d="M23,23,50.77,73.43c.43.78.21,1.54-.48,1.71h0a2,2,0,0,1-2-1.1L20.49,23.66c-.43-.78-.21-1.54.48-1.71h0A2,2,0,0,1,23,23Z" transform="translate(-15.6 -18.94)"/><path class="cls-3" d="M98.35,103,49.9,75.92a2,2,0,0,1-1-2h0c.17-.66.91-.86,1.65-.44L99,100.6a2,2,0,0,1,1,2h0C99.84,103.22,99.1,103.42,98.35,103Z" transform="translate(-15.6 -18.94)"/><path class="cls-4" d="M98.86,105.1a2.93,2.93,0,0,1-4.38-.27c-11-14-10.74-38.75-23.27-51.28s-37.95-12.85-52-24A2.93,2.93,0,0,1,19,25.2l2.91-2.91a2.94,2.94,0,0,1,4-.15C39.78,33.62,65.6,33.8,78.28,46.48S90.5,84.34,101.93,98.22a2.94,2.94,0,0,1-.15,4Z" transform="translate(-15.6 -18.94)"/></g></svg>