<?xml version="1.0" encoding="utf-8"?>
<svg width="48" height="48" viewBox="0 0 48 48" xmlns="http://www.w3.org/2000/svg">
  <defs>
    <style>.cls-1,.cls-2{fill:#fff;}.cls-1,.cls-4{stroke:#333;stroke-miterlimit:10;}.cls-1{stroke-width:8px;}.cls-3,.cls-4{fill:#333;}.cls-4{stroke-width:4px;}</style>
  </defs>
  <title>deetghost</title>
  <circle class="cls-1" cx="16.779" cy="9.947" r="3.099" transform="matrix(-0.398109, 0.917338, -0.917337, -0.398109, 44.386471, 27.120342)" style="stroke-width: 4;"/>
  <circle class="cls-1" cx="35.363" cy="10.704" r="3.099" transform="matrix(-0.398108, 0.917337, -0.917337, -0.398109, 35.26926, 3.307304)" style="stroke-width: 4;"/>
  <path class="cls-2" d="M 23.373 40.66 C 18.204 40.66 12.381 28.087 12.381 21.389 C 12.381 11.649 22.925 5.561 31.361 10.431 C 35.276 12.691 37.687 16.869 37.687 21.389 C 37.687 28.395 31.324 37.64 24.595 40.407 C 24.208 40.572 23.793 40.658 23.373 40.66 Z" transform="matrix(-0.939692, -0.342021, 0.342021, -0.939692, 40.65399, 53.38942)"/>
  <path class="cls-3" d="M 25.579 7.423 C 31.583 7.432 36.447 12.296 36.456 18.3 C 36.456 24.575 30.515 33.186 24.46 35.677 C 24.288 35.751 24.103 35.79 23.916 35.792 C 22.686 35.792 20.367 33.935 18.152 29.878 C 16.121 26.129 14.702 21.37 14.702 18.316 C 14.702 12.306 19.569 7.432 25.579 7.423 M 25.579 3.875 C 17.611 3.873 11.15 10.332 11.15 18.3 C 11.15 25.585 17.241 39.356 23.916 39.356 C 24.567 39.351 25.212 39.217 25.812 38.961 C 32.908 36.036 40.005 26.272 40.005 18.3 C 40.005 10.333 33.546 3.875 25.579 3.875 Z" transform="matrix(-0.939692, -0.342021, 0.342021, -0.939692, 42.219854, 50.673519)"/>
  <rect class="cls-4" x="27.794" y="15.573" width="2.365" height="1.971" rx="2.5" ry="2.5" transform="matrix(0.342021, -0.939691, 0.939693, 0.342021, -6.091844, 49.732774)" style="stroke-width: 2;"/>
  <rect class="cls-4" x="-32.63" y="-22.024" width="2.365" height="1.971" rx="2.5" ry="2.5" transform="matrix(0.34202, -0.939693, 0.939693, 0.342021, 56.942244, 8.374298)" style="stroke-width: 2;"/>
</svg>