<svg width="48" height="48" xmlns="http://www.w3.org/2000/svg" viewBox="0 0 131.09 139.64"><defs><style>.cls-1{fill:#875f45;}.cls-1,.cls-2{stroke:#333;stroke-miterlimit:10;stroke-width:8px;}.cls-2{fill:#ba363f;}</style></defs><rect class="cls-1" x="4.48" y="53.29" width="127.08" height="15.72" rx="4.33" ry="4.33" transform="translate(-38.65 91.8) rotate(-45)"/><path class="cls-2" d="M92.7-16.44l1,22.74a5.13,5.13,0,0,0,2.44,4.15l25.92,15.91a5.13,5.13,0,0,0,6.36-.8L141,12.63a5.13,5.13,0,0,0,.61-6.39l-16.7-25.42a5.13,5.13,0,0,0-4.22-2.31l-22.76-.3A5.13,5.13,0,0,0,92.7-16.44Z" transform="translate(-15.33 25.79)"/></svg>