<?xml version="1.0" encoding="utf-8"?>
<svg width="120" height="120" viewBox="0 0 172.5 172.5" xmlns="http://www.w3.org/2000/svg">
  <defs>
    <style>.cls-1{fill:#845e48;stroke:#333;stroke-miterlimit:10;stroke-width:10px;}</style>
    <style>.cls-1{fill:#845e48;stroke-width:6px;}.cls-1,.cls-2,.cls-3{stroke:#333;stroke-miterlimit:10;}.cls-2{fill:#c04a4e;}.cls-2,.cls-3{stroke-width:5px;}.cls-3{fill:#666;}</style>
    <style>.cls-1{fill:#845e48;stroke-width:10px;}.cls-1,.cls-2{stroke:#333;stroke-miterlimit:10;}.cls-2{fill:#666;stroke-width:6px;}</style>
  </defs>
  <rect class="cls-1" x="1449" y="936" width="128" height="128" rx="12" ry="12" transform="matrix(0, 1, -1, 0, 1085.723022, -1426.990601)" style="stroke-width: 8;"/>
  <path class="cls-1" d="M 146.623 123.932 L 159.831 131.572 C 163.146 133.481 167.286 131.091 167.29 127.265 L 167.29 111.985 C 167.286 108.159 163.146 105.768 159.831 107.677 L 146.623 115.318 C 143.31 117.234 143.31 122.016 146.623 123.932 Z" transform="matrix(-1, 0, 0, -1, 310.599983, 239.248991)" style="stroke-width: 6;"/>
  <path class="cls-1" d="M 146.624 90.506 L 159.832 98.146 C 163.147 100.056 167.287 97.665 167.291 93.839 L 167.291 78.559 C 167.287 74.733 163.147 72.342 159.832 74.251 L 146.624 81.892 C 143.311 83.808 143.311 88.59 146.624 90.506 Z" transform="matrix(-1, 0, 0, -1, 310.601972, 172.397998)" style="stroke-width: 6;"/>
  <path class="cls-1" d="M 146.623 57.08 L 159.831 64.72 C 163.146 66.629 167.286 64.239 167.29 60.413 L 167.29 45.133 C 167.286 41.307 163.146 38.916 159.831 40.826 L 146.623 48.466 C 143.31 50.382 143.31 55.164 146.623 57.08 Z" transform="matrix(-1, 0, 0, -1, 310.599983, 105.54499)" style="stroke-width: 6;"/>
  <path class="cls-1" d="M 133.907 118.294 L 133.907 108.2 C 133.907 106.91 132.438 105.869 130.638 105.869 L 116.684 105.869 C 116.298 105.871 115.913 105.922 115.538 106.023 L 99.184 110.358 C 98.81 110.458 98.425 110.51 98.039 110.511 L 54.996 110.511 C 53.149 110.511 51.726 111.552 51.726 112.841 L 51.726 123.728 C 51.726 125.018 53.194 126.059 54.996 126.059 L 98.039 126.059 C 98.425 126.061 98.81 126.111 99.184 126.212 L 115.53 130.576 C 115.904 130.677 116.288 130.728 116.675 130.729 L 130.628 130.729 C 132.475 130.729 133.897 129.688 133.897 128.399 Z" style="stroke-width: 6;" transform="matrix(-1, 0, 0, -1, 185.633002, 236.598019)"/>
  <path class="cls-1" d="M 133.907 84.868 L 133.907 74.774 C 133.907 73.485 132.388 72.444 130.526 72.444 L 116.096 72.444 C 115.696 72.445 115.298 72.496 114.911 72.597 L 97.998 76.932 C 97.611 77.032 97.213 77.084 96.814 77.085 L 52.3 77.085 C 50.39 77.085 48.919 78.126 48.919 79.415 L 48.919 90.303 C 48.919 91.592 50.437 92.633 52.3 92.633 L 96.814 92.633 C 97.213 92.635 97.611 92.685 97.998 92.786 L 114.902 97.15 C 115.289 97.251 115.686 97.302 116.086 97.303 L 130.516 97.303 C 132.426 97.303 133.897 96.262 133.897 94.973 Z" transform="matrix(-1, 0, 0, -1, 182.826006, 169.747005)"/>
  <path class="cls-1" d="M 133.897 51.443 L 133.897 41.348 C 133.897 40.059 132.429 39.018 130.628 39.018 L 116.675 39.018 C 116.288 39.02 115.904 39.07 115.53 39.17 L 99.184 43.535 C 98.81 43.635 98.425 43.687 98.039 43.688 L 54.996 43.688 C 53.149 43.688 51.726 44.729 51.726 46.018 L 51.726 56.877 C 51.726 58.166 53.194 59.207 54.996 59.207 L 98.039 59.207 C 98.425 59.209 98.81 59.259 99.184 59.36 L 115.53 63.724 C 115.904 63.824 116.288 63.876 116.675 63.877 L 130.628 63.877 C 132.475 63.877 133.897 62.836 133.897 61.547 Z" style="stroke-width: 6;" transform="matrix(-1, 0, 0, -1, 185.623029, 102.895002)"/>
  <rect class="cls-2" x="-124.796" y="-131.015" width="11.202" height="26.13" rx="5" ry="5" transform="matrix(-1, 0, 0, -1, 0, 0)" style="stroke-width: 4;"/>
  <rect class="cls-2" x="-124.796" y="-64.164" width="11.202" height="26.13" rx="5" ry="5" transform="matrix(-1, 0, 0, -1, 0, 0)" style="stroke-width: 4;"/>
  <rect class="cls-2" x="-124.796" y="-97.589" width="11.202" height="26.13" rx="5" ry="5" transform="matrix(-1, 0, 0, -1, 0, 0)" style="stroke-width: 4;"/>
  <rect class="cls-3" x="-143.467" y="-132.448" width="10.028" height="93.593" rx="3.75" ry="3.75" transform="matrix(-1, 0, 0, -1, 0, 0)"/>
  <rect class="cls-2" x="-105.695" y="-131.015" width="11.202" height="26.13" rx="5" ry="5" transform="matrix(-1, 0, 0, -1, 0, 0)"/>
  <rect class="cls-2" x="-80.382" y="-128.077" width="11.202" height="26.13" rx="5" ry="5" transform="matrix(-0.999999, 0, 0, -1, 5.066621, 2.939117)"/>
  <rect class="cls-2" x="-105.695" y="-64.164" width="11.202" height="26.13" rx="5" ry="5" transform="matrix(-1, 0, 0, -1, 0, 0)"/>
  <rect class="cls-2" x="-80.382" y="-61.225" width="11.202" height="26.13" rx="5" ry="5" transform="matrix(-0.999999, 0, 0, -1, 5.066621, 2.939088)"/>
  <rect class="cls-2" x="-105.695" y="-97.589" width="11.202" height="26.13" rx="5" ry="5" transform="matrix(-1, 0, 0, -1, 0, 0)"/>
  <rect class="cls-2" x="-80.382" y="-94.651" width="11.202" height="26.13" rx="5" ry="5" transform="matrix(-0.999999, 0, 0, -1, 5.066621, 2.939087)"/>
  <path class="cls-1" d="M 42.793 136.361 L 88.495 136.361 C 95.024 136.361 100.313 134.762 100.313 132.794 L 118.864 101.165 C 123.046 93.655 123.306 84.579 119.561 76.843 L 100.323 38.46 C 100.323 36.492 95.034 34.893 88.505 34.893 L 42.804 34.893 C 36.275 34.893 30.986 36.492 30.986 38.46 L 30.986 132.753 C 30.976 134.762 36.265 136.361 42.793 136.361 Z" transform="matrix(-1, 0, 0, -1, 154.281983, 171.254004)"/>
  <path class="cls-2" d="M 58.112 117.327 L 87.199 117.327 C 91.35 117.327 94.723 116.302 94.723 115.061 L 106.529 94.931 C 109.205 90.138 109.365 84.339 106.959 79.404 L 94.712 54.979 C 94.712 53.729 91.34 52.715 87.189 52.715 L 58.101 52.715 C 53.951 52.715 50.578 53.74 50.578 54.979 L 50.578 115.011 C 50.588 116.302 53.961 117.327 58.112 117.327 Z" transform="matrix(-1, 0, 0, -1, 159.943007, 170.041984)"/>
</svg>