<svg width="144" height="144" xmlns="http://www.w3.org/2000/svg" viewBox="0 0 148.98 147.23"><defs><style>.cls-1{fill:#b3b3b3;stroke:#333;stroke-miterlimit:10;stroke-width:10px;}.cls-2{fill:#ccc;opacity:0.9;}</style></defs><path class="cls-1" d="M97.69,73.67,79.91,86.59A51.71,51.71,0,0,0,61.12,144.4l6.79,20.9A51.71,51.71,0,0,0,117.09,201h22a51.71,51.71,0,0,0,49.17-35.73L195,144.4a51.71,51.71,0,0,0-18.78-57.81L158.47,73.67A51.71,51.71,0,0,0,97.69,73.67Z" transform="translate(-53.59 -58.79)"/><path class="cls-2" d="M100.12,105.87l-7.35,5.34a31.68,31.68,0,0,0-11.51,35.42l2.81,8.63a31.68,31.68,0,0,0,30.13,21.89h9.08a31.68,31.68,0,0,0,30.13-21.89l2.81-8.63a31.68,31.68,0,0,0-11.51-35.42l-7.35-5.34A31.68,31.68,0,0,0,100.12,105.87Z" transform="translate(-53.59 -58.79)"/></svg>