<?xml version="1.0" encoding="utf-8"?>
<svg width="120" height="120" viewBox="0 0 172.5 172.5" xmlns="http://www.w3.org/2000/svg">
  <defs>
    <style>.cls-1{fill:#845e48;}.cls-1,.cls-2,.cls-3{stroke:#333;stroke-miterlimit:10;}.cls-1,.cls-3{stroke-width:10px;}.cls-2{fill:#666;stroke-width:8px;}.cls-3{fill:#534741;}</style>
    <style>.cls-1{fill:#666;stroke:#333;stroke-miterlimit:10;stroke-width:8px;}</style>
  </defs>
  <rect class="cls-1" width="128" height="128" rx="12" ry="12" transform="matrix(0, 1, -1, 0, 150.215256, 22.21526)" style="fill:#845e48;"/>
  <circle class="cls-2" cx="64.52" cy="64.5" r="53.48" transform="matrix(0.060352, -0.998177, 0.998177, 0.060352, 18.465259, 147.22526)"/>
  <path class="cls-1" d="M 44.945 92.675 L 44.945 80.555 C 44.943 77.412 47.896 75.104 50.945 75.865 L 65.825 79.635 C 67.974 80.176 69.478 82.11 69.475 84.325 L 69.475 88.905 C 69.478 91.121 67.974 93.054 65.825 93.595 L 50.965 97.355 C 47.913 98.131 44.946 95.825 44.945 92.675 Z" style="fill: rgb(140, 98, 57);"/>
  <path class="cls-1" d="M 128.485 81.555 L 128.485 93.675 C 128.488 96.818 125.535 99.127 122.485 98.365 L 107.585 94.585 C 105.437 94.044 103.932 92.111 103.935 89.895 L 103.935 85.325 C 103.932 83.11 105.437 81.176 107.585 80.635 L 122.465 76.865 C 125.522 76.088 128.491 78.401 128.485 81.555 Z" style="fill: rgb(140, 98, 57);"/>
  <path class="cls-3" d="M 62.365 117.895 L 54.215 109.755 C 52.099 107.638 52.543 104.095 55.115 102.565 L 67.645 95.105 C 69.452 94.028 71.759 94.316 73.245 95.805 L 76.315 98.875 C 77.804 100.361 78.093 102.669 77.015 104.475 L 69.555 117.005 C 68.022 119.575 64.479 120.013 62.365 117.895 Z" style="stroke-width: 8;"/>
  <path class="cls-3" d="M 111.015 54.315 L 119.155 62.455 C 121.271 64.572 120.828 68.115 118.255 69.645 L 105.725 77.105 C 103.919 78.183 101.611 77.894 100.125 76.405 L 97.055 73.335 C 95.566 71.849 95.278 69.542 96.355 67.735 L 103.815 55.215 C 105.345 52.635 108.898 52.19 111.015 54.315 Z" style="stroke-width: 8;"/>
  <path class="cls-3" d="M 54.895 61.775 L 63.035 53.635 C 65.152 51.519 68.695 51.963 70.225 54.535 L 77.685 67.065 C 78.763 68.872 78.474 71.179 76.985 72.665 L 73.915 75.735 C 72.429 77.224 70.122 77.513 68.315 76.435 L 55.785 68.975 C 53.208 67.442 52.769 63.89 54.895 61.775 Z" style="stroke-width: 8;"/>
  <path class="cls-3" d="M 118.485 110.435 L 110.345 118.575 C 108.228 120.691 104.685 120.248 103.155 117.675 L 95.685 105.145 C 94.608 103.339 94.896 101.031 96.385 99.545 L 99.455 96.475 C 100.941 94.986 103.249 94.698 105.055 95.775 L 117.585 103.215 C 120.182 104.743 120.628 108.317 118.485 110.435 Z" style="stroke-width: 8;"/>
  <path class="cls-1" d="M 80.155 45.335 L 92.275 45.335 C 95.418 45.333 97.727 48.286 96.965 51.335 L 93.215 66.215 C 92.674 68.364 90.741 69.868 88.525 69.865 L 83.925 69.865 C 81.702 69.877 79.758 68.371 79.215 66.215 L 75.465 51.365 C 74.68 48.305 76.996 45.328 80.155 45.335 Z" style="fill: rgb(140, 98, 57);"/>
  <path class="cls-1" d="M 91.275 128.885 L 79.155 128.885 C 76.012 128.888 73.704 125.935 74.465 122.885 L 78.215 107.985 C 78.757 105.837 80.69 104.332 82.905 104.335 L 87.485 104.335 C 89.716 104.314 91.67 105.822 92.215 107.985 L 95.985 122.865 C 96.764 125.93 94.437 128.904 91.275 128.885 Z" style="fill: rgb(140, 98, 57);"/>
  <circle class="cls-1" cx="86.169" cy="86.228" r="20"/>
  <circle class="cls-1" cx="86.169" cy="86.228" r="10"/>
</svg>