<?xml version="1.0" encoding="utf-8"?>
<svg width="180" height="52" viewBox="-85 -11 308 88" xmlns="http://www.w3.org/2000/svg">
  <defs>
    <style>.cls-1{fill:#875f45;}.cls-1,.cls-2,.cls-4{stroke:#333;stroke-miterlimit:10;stroke-width:9px;}.cls-2{fill:#4d4d4d;}.cls-3{fill:#740c10;opacity:0.7;}.cls-4{fill:#45779c;}</style>
    <style>.cls-1{fill:#4d4d4d;}.cls-1,.cls-2,.cls-4{stroke:#333;stroke-miterlimit:10;stroke-width:9px;}.cls-2{fill:#875f45;}.cls-3{fill:#740c10;}.cls-4{fill:#45779c;}</style>
    <style>.cls-1{fill:#4d4d4d;}.cls-1,.cls-3,.cls-4{stroke:#333;stroke-miterlimit:10;stroke-width:9px;}.cls-2{fill:#740c10;opacity:0.7;}.cls-3{fill:#875f45;}.cls-4{fill:#45779c;}</style>
  </defs>
  <g id="weapons" transform="matrix(1, 0, 0, 1, -0.177919, -7.342737)">
    <path class="cls-1" d="M137.47,32.41H105.92a3.91,3.91,0,0,1-3.75-2.8L94.05,2.27a3.91,3.91,0,0,1,3.75-5h47.77a3.91,3.91,0,0,1,3.75,5l-8.11,27.34A3.91,3.91,0,0,1,137.47,32.41Z" transform="translate(39.65 6.76)"/>
    <path class="cls-1" d="M137.47,34.24H105.92a3.91,3.91,0,0,0-3.75,2.8L94.05,64.38a3.91,3.91,0,0,0,3.75,5h47.77a3.91,3.91,0,0,0,3.75-5L141.22,37A3.91,3.91,0,0,0,137.47,34.24Z" transform="translate(39.65 6.76)"/>
    <rect class="cls-2" x="137.43" y="69.01" width="47.83" height="4.35" style="stroke-width: 0;"/>
    <rect class="cls-3" x="4" y="35.13" width="140.41" height="9.15" rx="4.03" ry="4.03" style="opacity: 1;"/>
    <path class="cls-1" d="M149.79,26h-49a4.26,4.26,0,0,0-1.16.16L89.56,29a4.26,4.26,0,0,0,0,8.19l10.09,2.86a4.26,4.26,0,0,0,1.16.16h49a4.26,4.26,0,0,0,1.16-.16L161,37.22A4.26,4.26,0,0,0,161,29L151,26.16A4.26,4.26,0,0,0,149.79,26Z" transform="translate(39.65 6.76)"/>
    <circle class="cls-4" cx="-3.67" cy="43.22" r="17.31" transform="translate(-6.94 43.7) rotate(-86.54)"/>
    <circle class="cls-4" cx="62.7" cy="43.03" r="17.31" transform="translate(55.62 109.77) rotate(-86.54)"/>
  </g>
</svg>
