<?xml version="1.0" encoding="utf-8"?>
<svg width="150" height="43" viewBox="0 0 240 72" xmlns="http://www.w3.org/2000/svg">
  <defs>
    <style>.cls-1{fill:#4d4d4d;}.cls-1,.cls-2,.cls-3{stroke:#333;stroke-miterlimit:10;stroke-width:8px;}.cls-2{fill:#875f45;}.cls-3{fill:#4c82ab;}</style>
    <style>.cls-1{fill:#875f45;}.cls-1,.cls-2,.cls-3{stroke:#333;stroke-miterlimit:10;stroke-width:8px;}.cls-2{fill:#4d4d4d;}.cls-3{fill:#4c82ab;}</style>
  </defs>
  <g id="g-1" transform="matrix(1, 0, 0, 1, 67.88221, 5.502494)">
    <rect class="cls-1" x="4" y="20.59" width="118.19" height="10.83" rx="4.03" ry="4.03"/>
    <polygon class="cls-2" points="130.2 4.43 137.56 7.94 145.25 10.66 147.97 18.35 151.48 25.71 147.97 33.07 145.25 40.76 137.56 43.48 130.2 46.99 122.84 43.48 115.15 40.76 112.43 33.07 108.92 25.71 112.43 18.35 115.15 10.66 122.84 7.94 130.2 4.43"/>
    <circle class="cls-3" cx="13.66" cy="44.29" r="13.25" transform="translate(-18.19 41.68) rotate(-86.54)"/>
    <circle class="cls-3" cx="64.47" cy="44.14" r="13.25" transform="translate(29.7 92.26) rotate(-86.54)"/>
  </g>
</svg>
