<?xml version="1.0" encoding="utf-8"?>
<svg width="51" height="51" viewBox="0 0 78.87 78.87" xmlns="http://www.w3.org/2000/svg">
  <defs>
    <style>.cls-1{fill:#d8b27d;}.cls-1,.cls-2,.cls-3{stroke:#333;stroke-miterlimit:10;stroke-width:8px;}.cls-2{fill:#7f5f41;}.cls-3{fill:#a67c52;}</style>
  </defs>
  <circle class="cls-1" cx="532.88" cy="478.39" r="30.26" transform="matrix(0.060352, -0.998177, 0.998178, 0.060352, -470.841614, 537.39978)"/>
  <path class="cls-2" d="M 70.619 39.72 C 70.819 56.31 54.099 67.58 39.519 67.72 C 24.939 67.86 8.449 56.02 8.239 38.93 C 8.019 19.97 24.389 22.17 38.959 21.97 C 53.529 21.77 70.389 21.74 70.609 39.69"/>
  <path class="cls-3" d="M 62.729 48.45 C 64.359 60.05 50.599 74.84 39.959 74.97 C 29.319 75.1 15.689 59.92 17.209 47.97 C 18.979 33.97 29.339 34.13 39.979 33.97 C 50.619 33.81 60.979 35.85 62.719 48.45"/>
</svg>