<svg width="120" height="120" xmlns="http://www.w3.org/2000/svg" viewBox="0 0 166.17 155.33"><defs><style>.cls-1,.cls-2,.cls-4,.cls-5{fill:#7741aa;}.cls-2,.cls-3,.cls-4,.cls-5{stroke:#333;stroke-miterlimit:10;}.cls-2,.cls-3{stroke-width:8px;}.cls-3{fill:#6d6d6d;}.cls-4{stroke-width:5px;}.cls-5{stroke-width:10px;}</style></defs><rect class="cls-1" x="17.04" y="27.15" width="84.79" height="4.48" rx="2.24" ry="2.24" transform="translate(15.79 64.16) rotate(-45)"/><rect class="cls-1" x="16.04" y="96.15" width="84.79" height="4.48" rx="2.24" ry="2.24" transform="translate(105.86 1.02) rotate(45)"/><rect class="cls-2" x="68.3" y="87.96" width="79.88" height="22.2" rx="8.76" ry="8.76" transform="translate(-3.62 178.62) rotate(-69.21)"/><rect class="cls-2" x="68.55" y="17.95" width="79.88" height="22.72" rx="8.76" ry="8.76" transform="translate(116.56 -68.99) rotate(69.21)"/><rect class="cls-3" x="44.17" y="59.52" width="118" height="37" rx="4.33" ry="4.33"/><rect class="cls-4" x="47.67" y="72.02" width="111" height="11"/><path class="cls-5" d="M26.7,47V82c0,9.12-4.94,15.79-10,13.55L-8.1,84.67c-3.57-1.57-6.07-7.15-6.07-13.55V57.88c0-6.4,2.5-12,6.07-13.55L16.67,33.42C21.76,31.18,26.7,37.85,26.7,47Z" transform="translate(19.17 13.52)"/></svg>