<?xml version="1.0" encoding="utf-8"?>
<svg width="61" height="61" viewBox="0 0 88 88" xmlns="http://www.w3.org/2000/svg">
  <defs>
    <style>.cls-1{fill:#666;stroke-width:8px;}.cls-1,.cls-2{stroke:#333;stroke-miterlimit:10;}.cls-2{fill:#ba363f;stroke-width:6px;}</style>
  </defs>
  <circle class="cls-1" cx="76.3" cy="61.19" r="29.51" transform="matrix(-0.060352, 0.998177, -0.998177, -0.060352, 110.038721, -29.104271)"/>
  <path class="cls-2" d="M 1.107 57.359 C 18.867 53.059 22.667 44.059 23.357 39.139 C 23.487 38.241 24.542 37.82 25.255 38.382 C 25.373 38.475 25.472 38.59 25.547 38.719 C 29.207 44.809 34.137 59.199 10.547 72.179 C 9.006 73.02 7.084 72.627 5.997 71.249 L -0.763 62.699 C -2.273 60.77 -1.277 57.925 1.107 57.359 Z" transform="matrix(-1, 0, 0, -1, 31.864001, 110.839995)"/>
  <path class="cls-2" d="M 86.865 56.961 C 69.095 52.671 65.305 43.671 64.585 38.751 C 64.454 37.852 63.4 37.431 62.686 37.994 C 62.569 38.087 62.47 38.201 62.395 38.331 C 58.735 44.421 53.805 58.811 77.395 71.791 C 78.935 72.632 80.857 72.239 81.945 70.861 L 88.705 62.311 C 90.225 60.39 89.245 57.54 86.865 56.961 Z" transform="matrix(-1, 0, 0, -1, 144.029997, 110.063009)"/>
</svg>